<?xml version="1.0" encoding="UTF-8" standalone="no"?>
<!DOCTYPE svg PUBLIC "-//W3C//DTD SVG 1.1//EN"
 "http://www.w3.org/Graphics/SVG/1.1/DTD/svg11.dtd">
<!-- Generated by graphviz version 2.40.1 (20161225.0304)
 -->
<!-- Title: Tree Pages: 1 -->
<svg width="843pt" height="685pt"
 viewBox="0.00 0.00 843.00 685.00" xmlns="http://www.w3.org/2000/svg" xmlns:xlink="http://www.w3.org/1999/xlink">
<g id="graph0" class="graph" transform="scale(1 1) rotate(0) translate(4 681)">
<title>Tree</title>
<polygon fill="#ffffff" stroke="transparent" points="-4,4 -4,-681 839,-681 839,4 -4,4"/>
<!-- 0 -->
<g id="node1" class="node">
<title>0</title>
<polygon fill="none" stroke="#000000" points="427.5,-677 311.5,-677 311.5,-609 427.5,-609 427.5,-677"/>
<text text-anchor="middle" x="369.5" y="-661.8" font-family="Helvetica,sans-Serif" font-size="14.00" fill="#000000">X[2] &lt;= 94.5</text>
<text text-anchor="middle" x="369.5" y="-646.8" font-family="Helvetica,sans-Serif" font-size="14.00" fill="#000000">gini = 0.481</text>
<text text-anchor="middle" x="369.5" y="-631.8" font-family="Helvetica,sans-Serif" font-size="14.00" fill="#000000">samples = 72</text>
<text text-anchor="middle" x="369.5" y="-616.8" font-family="Helvetica,sans-Serif" font-size="14.00" fill="#000000">value = [29, 43]</text>
</g>
<!-- 1 -->
<g id="node2" class="node">
<title>1</title>
<polygon fill="none" stroke="#000000" points="359.5,-573 243.5,-573 243.5,-505 359.5,-505 359.5,-573"/>
<text text-anchor="middle" x="301.5" y="-557.8" font-family="Helvetica,sans-Serif" font-size="14.00" fill="#000000">X[0] &lt;= 44.0</text>
<text text-anchor="middle" x="301.5" y="-542.8" font-family="Helvetica,sans-Serif" font-size="14.00" fill="#000000">gini = 0.467</text>
<text text-anchor="middle" x="301.5" y="-527.8" font-family="Helvetica,sans-Serif" font-size="14.00" fill="#000000">samples = 35</text>
<text text-anchor="middle" x="301.5" y="-512.8" font-family="Helvetica,sans-Serif" font-size="14.00" fill="#000000">value = [22, 13]</text>
</g>
<!-- 0&#45;&gt;1 -->
<g id="edge1" class="edge">
<title>0&#45;&gt;1</title>
<path fill="none" stroke="#000000" d="M347.2343,-608.9465C341.5398,-600.2373 335.3448,-590.7626 329.4062,-581.6801"/>
<polygon fill="#000000" stroke="#000000" points="332.2177,-579.5843 323.8158,-573.13 326.3589,-583.4151 332.2177,-579.5843"/>
<text text-anchor="middle" x="318.6942" y="-593.8998" font-family="Helvetica,sans-Serif" font-size="14.00" fill="#000000">True</text>
</g>
<!-- 14 -->
<g id="node15" class="node">
<title>14</title>
<polygon fill="none" stroke="#000000" points="546,-573 427,-573 427,-505 546,-505 546,-573"/>
<text text-anchor="middle" x="486.5" y="-557.8" font-family="Helvetica,sans-Serif" font-size="14.00" fill="#000000">X[8] &lt;= 286.908</text>
<text text-anchor="middle" x="486.5" y="-542.8" font-family="Helvetica,sans-Serif" font-size="14.00" fill="#000000">gini = 0.307</text>
<text text-anchor="middle" x="486.5" y="-527.8" font-family="Helvetica,sans-Serif" font-size="14.00" fill="#000000">samples = 37</text>
<text text-anchor="middle" x="486.5" y="-512.8" font-family="Helvetica,sans-Serif" font-size="14.00" fill="#000000">value = [7, 30]</text>
</g>
<!-- 0&#45;&gt;14 -->
<g id="edge14" class="edge">
<title>0&#45;&gt;14</title>
<path fill="none" stroke="#000000" d="M407.8102,-608.9465C418.2141,-599.6986 429.589,-589.5876 440.3757,-579.9994"/>
<polygon fill="#000000" stroke="#000000" points="442.9549,-582.3896 448.1038,-573.13 438.3044,-577.1577 442.9549,-582.3896"/>
<text text-anchor="middle" x="446.6357" y="-594.3869" font-family="Helvetica,sans-Serif" font-size="14.00" fill="#000000">False</text>
</g>
<!-- 2 -->
<g id="node3" class="node">
<title>2</title>
<polygon fill="none" stroke="#000000" points="225,-461.5 126,-461.5 126,-408.5 225,-408.5 225,-461.5"/>
<text text-anchor="middle" x="175.5" y="-446.3" font-family="Helvetica,sans-Serif" font-size="14.00" fill="#000000">gini = 0.0</text>
<text text-anchor="middle" x="175.5" y="-431.3" font-family="Helvetica,sans-Serif" font-size="14.00" fill="#000000">samples = 8</text>
<text text-anchor="middle" x="175.5" y="-416.3" font-family="Helvetica,sans-Serif" font-size="14.00" fill="#000000">value = [8, 0]</text>
</g>
<!-- 1&#45;&gt;2 -->
<g id="edge2" class="edge">
<title>1&#45;&gt;2</title>
<path fill="none" stroke="#000000" d="M260.2429,-504.9465C245.8303,-493.0504 229.6873,-479.726 215.3883,-467.9237"/>
<polygon fill="#000000" stroke="#000000" points="217.5971,-465.2086 207.6569,-461.5422 213.1411,-470.6071 217.5971,-465.2086"/>
</g>
<!-- 3 -->
<g id="node4" class="node">
<title>3</title>
<polygon fill="none" stroke="#000000" points="359.5,-469 243.5,-469 243.5,-401 359.5,-401 359.5,-469"/>
<text text-anchor="middle" x="301.5" y="-453.8" font-family="Helvetica,sans-Serif" font-size="14.00" fill="#000000">X[0] &lt;= 66.5</text>
<text text-anchor="middle" x="301.5" y="-438.8" font-family="Helvetica,sans-Serif" font-size="14.00" fill="#000000">gini = 0.499</text>
<text text-anchor="middle" x="301.5" y="-423.8" font-family="Helvetica,sans-Serif" font-size="14.00" fill="#000000">samples = 27</text>
<text text-anchor="middle" x="301.5" y="-408.8" font-family="Helvetica,sans-Serif" font-size="14.00" fill="#000000">value = [14, 13]</text>
</g>
<!-- 1&#45;&gt;3 -->
<g id="edge3" class="edge">
<title>1&#45;&gt;3</title>
<path fill="none" stroke="#000000" d="M301.5,-504.9465C301.5,-496.776 301.5,-487.9318 301.5,-479.3697"/>
<polygon fill="#000000" stroke="#000000" points="305.0001,-479.13 301.5,-469.13 298.0001,-479.13 305.0001,-479.13"/>
</g>
<!-- 4 -->
<g id="node5" class="node">
<title>4</title>
<polygon fill="none" stroke="#000000" points="230,-365 123,-365 123,-297 230,-297 230,-365"/>
<text text-anchor="middle" x="176.5" y="-349.8" font-family="Helvetica,sans-Serif" font-size="14.00" fill="#000000">X[4] &lt;= 0.744</text>
<text text-anchor="middle" x="176.5" y="-334.8" font-family="Helvetica,sans-Serif" font-size="14.00" fill="#000000">gini = 0.415</text>
<text text-anchor="middle" x="176.5" y="-319.8" font-family="Helvetica,sans-Serif" font-size="14.00" fill="#000000">samples = 17</text>
<text text-anchor="middle" x="176.5" y="-304.8" font-family="Helvetica,sans-Serif" font-size="14.00" fill="#000000">value = [5, 12]</text>
</g>
<!-- 3&#45;&gt;4 -->
<g id="edge4" class="edge">
<title>3&#45;&gt;4</title>
<path fill="none" stroke="#000000" d="M260.5703,-400.9465C249.3472,-391.6088 237.0663,-381.3911 225.4427,-371.7203"/>
<polygon fill="#000000" stroke="#000000" points="227.4474,-368.8353 217.5216,-365.13 222.9704,-374.2164 227.4474,-368.8353"/>
</g>
<!-- 11 -->
<g id="node12" class="node">
<title>11</title>
<polygon fill="none" stroke="#000000" points="355,-365 248,-365 248,-297 355,-297 355,-365"/>
<text text-anchor="middle" x="301.5" y="-349.8" font-family="Helvetica,sans-Serif" font-size="14.00" fill="#000000">X[9] &lt;= &#45;9.665</text>
<text text-anchor="middle" x="301.5" y="-334.8" font-family="Helvetica,sans-Serif" font-size="14.00" fill="#000000">gini = 0.18</text>
<text text-anchor="middle" x="301.5" y="-319.8" font-family="Helvetica,sans-Serif" font-size="14.00" fill="#000000">samples = 10</text>
<text text-anchor="middle" x="301.5" y="-304.8" font-family="Helvetica,sans-Serif" font-size="14.00" fill="#000000">value = [9, 1]</text>
</g>
<!-- 3&#45;&gt;11 -->
<g id="edge11" class="edge">
<title>3&#45;&gt;11</title>
<path fill="none" stroke="#000000" d="M301.5,-400.9465C301.5,-392.776 301.5,-383.9318 301.5,-375.3697"/>
<polygon fill="#000000" stroke="#000000" points="305.0001,-375.13 301.5,-365.13 298.0001,-375.13 305.0001,-375.13"/>
</g>
<!-- 5 -->
<g id="node6" class="node">
<title>5</title>
<polygon fill="none" stroke="#000000" points="104,-253.5 5,-253.5 5,-200.5 104,-200.5 104,-253.5"/>
<text text-anchor="middle" x="54.5" y="-238.3" font-family="Helvetica,sans-Serif" font-size="14.00" fill="#000000">gini = 0.0</text>
<text text-anchor="middle" x="54.5" y="-223.3" font-family="Helvetica,sans-Serif" font-size="14.00" fill="#000000">samples = 3</text>
<text text-anchor="middle" x="54.5" y="-208.3" font-family="Helvetica,sans-Serif" font-size="14.00" fill="#000000">value = [3, 0]</text>
</g>
<!-- 4&#45;&gt;5 -->
<g id="edge5" class="edge">
<title>4&#45;&gt;5</title>
<path fill="none" stroke="#000000" d="M136.5526,-296.9465C122.7268,-285.1606 107.2564,-271.9726 93.5071,-260.2519"/>
<polygon fill="#000000" stroke="#000000" points="95.5168,-257.366 85.636,-253.5422 90.9756,-262.6931 95.5168,-257.366"/>
</g>
<!-- 6 -->
<g id="node7" class="node">
<title>6</title>
<polygon fill="none" stroke="#000000" points="233,-261 122,-261 122,-193 233,-193 233,-261"/>
<text text-anchor="middle" x="177.5" y="-245.8" font-family="Helvetica,sans-Serif" font-size="14.00" fill="#000000">X[1] &lt;= 35.108</text>
<text text-anchor="middle" x="177.5" y="-230.8" font-family="Helvetica,sans-Serif" font-size="14.00" fill="#000000">gini = 0.245</text>
<text text-anchor="middle" x="177.5" y="-215.8" font-family="Helvetica,sans-Serif" font-size="14.00" fill="#000000">samples = 14</text>
<text text-anchor="middle" x="177.5" y="-200.8" font-family="Helvetica,sans-Serif" font-size="14.00" fill="#000000">value = [2, 12]</text>
</g>
<!-- 4&#45;&gt;6 -->
<g id="edge6" class="edge">
<title>4&#45;&gt;6</title>
<path fill="none" stroke="#000000" d="M176.8274,-296.9465C176.906,-288.776 176.991,-279.9318 177.0734,-271.3697"/>
<polygon fill="#000000" stroke="#000000" points="180.5754,-271.1632 177.1718,-261.13 173.5757,-271.0958 180.5754,-271.1632"/>
</g>
<!-- 7 -->
<g id="node8" class="node">
<title>7</title>
<polygon fill="none" stroke="#000000" points="173,-157 54,-157 54,-89 173,-89 173,-157"/>
<text text-anchor="middle" x="113.5" y="-141.8" font-family="Helvetica,sans-Serif" font-size="14.00" fill="#000000">X[8] &lt;= 933.388</text>
<text text-anchor="middle" x="113.5" y="-126.8" font-family="Helvetica,sans-Serif" font-size="14.00" fill="#000000">gini = 0.142</text>
<text text-anchor="middle" x="113.5" y="-111.8" font-family="Helvetica,sans-Serif" font-size="14.00" fill="#000000">samples = 13</text>
<text text-anchor="middle" x="113.5" y="-96.8" font-family="Helvetica,sans-Serif" font-size="14.00" fill="#000000">value = [1, 12]</text>
</g>
<!-- 6&#45;&gt;7 -->
<g id="edge7" class="edge">
<title>6&#45;&gt;7</title>
<path fill="none" stroke="#000000" d="M156.544,-192.9465C151.1845,-184.2373 145.3539,-174.7626 139.7647,-165.6801"/>
<polygon fill="#000000" stroke="#000000" points="142.7249,-163.8122 134.5031,-157.13 136.7633,-167.481 142.7249,-163.8122"/>
</g>
<!-- 10 -->
<g id="node11" class="node">
<title>10</title>
<polygon fill="none" stroke="#000000" points="290,-149.5 191,-149.5 191,-96.5 290,-96.5 290,-149.5"/>
<text text-anchor="middle" x="240.5" y="-134.3" font-family="Helvetica,sans-Serif" font-size="14.00" fill="#000000">gini = 0.0</text>
<text text-anchor="middle" x="240.5" y="-119.3" font-family="Helvetica,sans-Serif" font-size="14.00" fill="#000000">samples = 1</text>
<text text-anchor="middle" x="240.5" y="-104.3" font-family="Helvetica,sans-Serif" font-size="14.00" fill="#000000">value = [1, 0]</text>
</g>
<!-- 6&#45;&gt;10 -->
<g id="edge10" class="edge">
<title>6&#45;&gt;10</title>
<path fill="none" stroke="#000000" d="M198.1286,-192.9465C204.8678,-181.8215 212.3637,-169.4473 219.1545,-158.237"/>
<polygon fill="#000000" stroke="#000000" points="222.2339,-159.9087 224.4216,-149.5422 216.2467,-156.2818 222.2339,-159.9087"/>
</g>
<!-- 8 -->
<g id="node9" class="node">
<title>8</title>
<polygon fill="none" stroke="#000000" points="107,-53 0,-53 0,0 107,0 107,-53"/>
<text text-anchor="middle" x="53.5" y="-37.8" font-family="Helvetica,sans-Serif" font-size="14.00" fill="#000000">gini = 0.0</text>
<text text-anchor="middle" x="53.5" y="-22.8" font-family="Helvetica,sans-Serif" font-size="14.00" fill="#000000">samples = 12</text>
<text text-anchor="middle" x="53.5" y="-7.8" font-family="Helvetica,sans-Serif" font-size="14.00" fill="#000000">value = [0, 12]</text>
</g>
<!-- 7&#45;&gt;8 -->
<g id="edge8" class="edge">
<title>7&#45;&gt;8</title>
<path fill="none" stroke="#000000" d="M92.3462,-88.9777C86.8805,-80.187 80.9846,-70.7044 75.4778,-61.8477"/>
<polygon fill="#000000" stroke="#000000" points="78.3837,-59.8927 70.1312,-53.2485 72.4391,-63.5889 78.3837,-59.8927"/>
</g>
<!-- 9 -->
<g id="node10" class="node">
<title>9</title>
<polygon fill="none" stroke="#000000" points="224,-53 125,-53 125,0 224,0 224,-53"/>
<text text-anchor="middle" x="174.5" y="-37.8" font-family="Helvetica,sans-Serif" font-size="14.00" fill="#000000">gini = 0.0</text>
<text text-anchor="middle" x="174.5" y="-22.8" font-family="Helvetica,sans-Serif" font-size="14.00" fill="#000000">samples = 1</text>
<text text-anchor="middle" x="174.5" y="-7.8" font-family="Helvetica,sans-Serif" font-size="14.00" fill="#000000">value = [1, 0]</text>
</g>
<!-- 7&#45;&gt;9 -->
<g id="edge9" class="edge">
<title>7&#45;&gt;9</title>
<path fill="none" stroke="#000000" d="M135.0063,-88.9777C140.5631,-80.187 146.5573,-70.7044 152.1559,-61.8477"/>
<polygon fill="#000000" stroke="#000000" points="155.2069,-63.5714 157.5916,-53.2485 149.2899,-59.8312 155.2069,-63.5714"/>
</g>
<!-- 12 -->
<g id="node13" class="node">
<title>12</title>
<polygon fill="none" stroke="#000000" points="351,-253.5 252,-253.5 252,-200.5 351,-200.5 351,-253.5"/>
<text text-anchor="middle" x="301.5" y="-238.3" font-family="Helvetica,sans-Serif" font-size="14.00" fill="#000000">gini = 0.0</text>
<text text-anchor="middle" x="301.5" y="-223.3" font-family="Helvetica,sans-Serif" font-size="14.00" fill="#000000">samples = 1</text>
<text text-anchor="middle" x="301.5" y="-208.3" font-family="Helvetica,sans-Serif" font-size="14.00" fill="#000000">value = [0, 1]</text>
</g>
<!-- 11&#45;&gt;12 -->
<g id="edge12" class="edge">
<title>11&#45;&gt;12</title>
<path fill="none" stroke="#000000" d="M301.5,-296.9465C301.5,-286.2621 301.5,-274.4254 301.5,-263.5742"/>
<polygon fill="#000000" stroke="#000000" points="305.0001,-263.5421 301.5,-253.5422 298.0001,-263.5422 305.0001,-263.5421"/>
</g>
<!-- 13 -->
<g id="node14" class="node">
<title>13</title>
<polygon fill="none" stroke="#000000" points="468,-253.5 369,-253.5 369,-200.5 468,-200.5 468,-253.5"/>
<text text-anchor="middle" x="418.5" y="-238.3" font-family="Helvetica,sans-Serif" font-size="14.00" fill="#000000">gini = 0.0</text>
<text text-anchor="middle" x="418.5" y="-223.3" font-family="Helvetica,sans-Serif" font-size="14.00" fill="#000000">samples = 9</text>
<text text-anchor="middle" x="418.5" y="-208.3" font-family="Helvetica,sans-Serif" font-size="14.00" fill="#000000">value = [9, 0]</text>
</g>
<!-- 11&#45;&gt;13 -->
<g id="edge13" class="edge">
<title>11&#45;&gt;13</title>
<path fill="none" stroke="#000000" d="M339.8102,-296.9465C353.0694,-285.1606 367.9058,-271.9726 381.0916,-260.2519"/>
<polygon fill="#000000" stroke="#000000" points="383.4912,-262.8018 388.6401,-253.5422 378.8407,-257.5699 383.4912,-262.8018"/>
</g>
<!-- 15 -->
<g id="node16" class="node">
<title>15</title>
<polygon fill="none" stroke="#000000" points="538.5,-469 434.5,-469 434.5,-401 538.5,-401 538.5,-469"/>
<text text-anchor="middle" x="486.5" y="-453.8" font-family="Helvetica,sans-Serif" font-size="14.00" fill="#000000">X[0] &lt;= 68.5</text>
<text text-anchor="middle" x="486.5" y="-438.8" font-family="Helvetica,sans-Serif" font-size="14.00" fill="#000000">gini = 0.5</text>
<text text-anchor="middle" x="486.5" y="-423.8" font-family="Helvetica,sans-Serif" font-size="14.00" fill="#000000">samples = 12</text>
<text text-anchor="middle" x="486.5" y="-408.8" font-family="Helvetica,sans-Serif" font-size="14.00" fill="#000000">value = [6, 6]</text>
</g>
<!-- 14&#45;&gt;15 -->
<g id="edge15" class="edge">
<title>14&#45;&gt;15</title>
<path fill="none" stroke="#000000" d="M486.5,-504.9465C486.5,-496.776 486.5,-487.9318 486.5,-479.3697"/>
<polygon fill="#000000" stroke="#000000" points="490.0001,-479.13 486.5,-469.13 483.0001,-479.13 490.0001,-479.13"/>
</g>
<!-- 22 -->
<g id="node23" class="node">
<title>22</title>
<polygon fill="none" stroke="#000000" points="714,-469 607,-469 607,-401 714,-401 714,-469"/>
<text text-anchor="middle" x="660.5" y="-453.8" font-family="Helvetica,sans-Serif" font-size="14.00" fill="#000000">X[6] &lt;= 2.28</text>
<text text-anchor="middle" x="660.5" y="-438.8" font-family="Helvetica,sans-Serif" font-size="14.00" fill="#000000">gini = 0.077</text>
<text text-anchor="middle" x="660.5" y="-423.8" font-family="Helvetica,sans-Serif" font-size="14.00" fill="#000000">samples = 25</text>
<text text-anchor="middle" x="660.5" y="-408.8" font-family="Helvetica,sans-Serif" font-size="14.00" fill="#000000">value = [1, 24]</text>
</g>
<!-- 14&#45;&gt;22 -->
<g id="edge22" class="edge">
<title>14&#45;&gt;22</title>
<path fill="none" stroke="#000000" d="M543.4741,-504.9465C561.0202,-494.4592 580.4234,-482.8619 598.3019,-472.1759"/>
<polygon fill="#000000" stroke="#000000" points="600.1533,-475.1469 606.9412,-467.0121 596.5619,-469.1383 600.1533,-475.1469"/>
</g>
<!-- 16 -->
<g id="node17" class="node">
<title>16</title>
<polygon fill="none" stroke="#000000" points="472,-357.5 373,-357.5 373,-304.5 472,-304.5 472,-357.5"/>
<text text-anchor="middle" x="422.5" y="-342.3" font-family="Helvetica,sans-Serif" font-size="14.00" fill="#000000">gini = 0.0</text>
<text text-anchor="middle" x="422.5" y="-327.3" font-family="Helvetica,sans-Serif" font-size="14.00" fill="#000000">samples = 3</text>
<text text-anchor="middle" x="422.5" y="-312.3" font-family="Helvetica,sans-Serif" font-size="14.00" fill="#000000">value = [0, 3]</text>
</g>
<!-- 15&#45;&gt;16 -->
<g id="edge16" class="edge">
<title>15&#45;&gt;16</title>
<path fill="none" stroke="#000000" d="M465.544,-400.9465C458.6978,-389.8215 451.0829,-377.4473 444.1843,-366.237"/>
<polygon fill="#000000" stroke="#000000" points="447.0555,-364.2244 438.8336,-357.5422 441.0939,-367.8931 447.0555,-364.2244"/>
</g>
<!-- 17 -->
<g id="node18" class="node">
<title>17</title>
<polygon fill="none" stroke="#000000" points="593,-365 490,-365 490,-297 593,-297 593,-365"/>
<text text-anchor="middle" x="541.5" y="-349.8" font-family="Helvetica,sans-Serif" font-size="14.00" fill="#000000">X[9] &lt;= 8.954</text>
<text text-anchor="middle" x="541.5" y="-334.8" font-family="Helvetica,sans-Serif" font-size="14.00" fill="#000000">gini = 0.444</text>
<text text-anchor="middle" x="541.5" y="-319.8" font-family="Helvetica,sans-Serif" font-size="14.00" fill="#000000">samples = 9</text>
<text text-anchor="middle" x="541.5" y="-304.8" font-family="Helvetica,sans-Serif" font-size="14.00" fill="#000000">value = [6, 3]</text>
</g>
<!-- 15&#45;&gt;17 -->
<g id="edge17" class="edge">
<title>15&#45;&gt;17</title>
<path fill="none" stroke="#000000" d="M504.5091,-400.9465C509.0199,-392.4169 513.9191,-383.153 518.6314,-374.2424"/>
<polygon fill="#000000" stroke="#000000" points="521.8694,-375.6062 523.4505,-365.13 515.6815,-372.3337 521.8694,-375.6062"/>
</g>
<!-- 18 -->
<g id="node19" class="node">
<title>18</title>
<polygon fill="none" stroke="#000000" points="591,-261 488,-261 488,-193 591,-193 591,-261"/>
<text text-anchor="middle" x="539.5" y="-245.8" font-family="Helvetica,sans-Serif" font-size="14.00" fill="#000000">X[6] &lt;= 3.296</text>
<text text-anchor="middle" x="539.5" y="-230.8" font-family="Helvetica,sans-Serif" font-size="14.00" fill="#000000">gini = 0.245</text>
<text text-anchor="middle" x="539.5" y="-215.8" font-family="Helvetica,sans-Serif" font-size="14.00" fill="#000000">samples = 7</text>
<text text-anchor="middle" x="539.5" y="-200.8" font-family="Helvetica,sans-Serif" font-size="14.00" fill="#000000">value = [6, 1]</text>
</g>
<!-- 17&#45;&gt;18 -->
<g id="edge18" class="edge">
<title>17&#45;&gt;18</title>
<path fill="none" stroke="#000000" d="M540.8451,-296.9465C540.688,-288.776 540.5179,-279.9318 540.3533,-271.3697"/>
<polygon fill="#000000" stroke="#000000" points="543.8481,-271.0608 540.1563,-261.13 536.8494,-271.1955 543.8481,-271.0608"/>
</g>
<!-- 21 -->
<g id="node22" class="node">
<title>21</title>
<polygon fill="none" stroke="#000000" points="708,-253.5 609,-253.5 609,-200.5 708,-200.5 708,-253.5"/>
<text text-anchor="middle" x="658.5" y="-238.3" font-family="Helvetica,sans-Serif" font-size="14.00" fill="#000000">gini = 0.0</text>
<text text-anchor="middle" x="658.5" y="-223.3" font-family="Helvetica,sans-Serif" font-size="14.00" fill="#000000">samples = 2</text>
<text text-anchor="middle" x="658.5" y="-208.3" font-family="Helvetica,sans-Serif" font-size="14.00" fill="#000000">value = [0, 2]</text>
</g>
<!-- 17&#45;&gt;21 -->
<g id="edge21" class="edge">
<title>17&#45;&gt;21</title>
<path fill="none" stroke="#000000" d="M579.8102,-296.9465C593.0694,-285.1606 607.9058,-271.9726 621.0916,-260.2519"/>
<polygon fill="#000000" stroke="#000000" points="623.4912,-262.8018 628.6401,-253.5422 618.8407,-257.5699 623.4912,-262.8018"/>
</g>
<!-- 19 -->
<g id="node20" class="node">
<title>19</title>
<polygon fill="none" stroke="#000000" points="530,-149.5 431,-149.5 431,-96.5 530,-96.5 530,-149.5"/>
<text text-anchor="middle" x="480.5" y="-134.3" font-family="Helvetica,sans-Serif" font-size="14.00" fill="#000000">gini = 0.0</text>
<text text-anchor="middle" x="480.5" y="-119.3" font-family="Helvetica,sans-Serif" font-size="14.00" fill="#000000">samples = 1</text>
<text text-anchor="middle" x="480.5" y="-104.3" font-family="Helvetica,sans-Serif" font-size="14.00" fill="#000000">value = [0, 1]</text>
</g>
<!-- 18&#45;&gt;19 -->
<g id="edge19" class="edge">
<title>18&#45;&gt;19</title>
<path fill="none" stroke="#000000" d="M520.1812,-192.9465C513.9324,-181.9316 506.9888,-169.6922 500.6793,-158.5703"/>
<polygon fill="#000000" stroke="#000000" points="503.5362,-156.513 495.5576,-149.5422 497.4477,-159.967 503.5362,-156.513"/>
</g>
<!-- 20 -->
<g id="node21" class="node">
<title>20</title>
<polygon fill="none" stroke="#000000" points="647,-149.5 548,-149.5 548,-96.5 647,-96.5 647,-149.5"/>
<text text-anchor="middle" x="597.5" y="-134.3" font-family="Helvetica,sans-Serif" font-size="14.00" fill="#000000">gini = 0.0</text>
<text text-anchor="middle" x="597.5" y="-119.3" font-family="Helvetica,sans-Serif" font-size="14.00" fill="#000000">samples = 6</text>
<text text-anchor="middle" x="597.5" y="-104.3" font-family="Helvetica,sans-Serif" font-size="14.00" fill="#000000">value = [6, 0]</text>
</g>
<!-- 18&#45;&gt;20 -->
<g id="edge20" class="edge">
<title>18&#45;&gt;20</title>
<path fill="none" stroke="#000000" d="M558.4914,-192.9465C564.6343,-181.9316 571.4601,-169.6922 577.6627,-158.5703"/>
<polygon fill="#000000" stroke="#000000" points="580.8837,-159.9806 582.6976,-149.5422 574.7701,-156.5711 580.8837,-159.9806"/>
</g>
<!-- 23 -->
<g id="node24" class="node">
<title>23</title>
<polygon fill="none" stroke="#000000" points="710,-357.5 611,-357.5 611,-304.5 710,-304.5 710,-357.5"/>
<text text-anchor="middle" x="660.5" y="-342.3" font-family="Helvetica,sans-Serif" font-size="14.00" fill="#000000">gini = 0.0</text>
<text text-anchor="middle" x="660.5" y="-327.3" font-family="Helvetica,sans-Serif" font-size="14.00" fill="#000000">samples = 1</text>
<text text-anchor="middle" x="660.5" y="-312.3" font-family="Helvetica,sans-Serif" font-size="14.00" fill="#000000">value = [1, 0]</text>
</g>
<!-- 22&#45;&gt;23 -->
<g id="edge23" class="edge">
<title>22&#45;&gt;23</title>
<path fill="none" stroke="#000000" d="M660.5,-400.9465C660.5,-390.2621 660.5,-378.4254 660.5,-367.5742"/>
<polygon fill="#000000" stroke="#000000" points="664.0001,-367.5421 660.5,-357.5422 657.0001,-367.5422 664.0001,-367.5421"/>
</g>
<!-- 24 -->
<g id="node25" class="node">
<title>24</title>
<polygon fill="none" stroke="#000000" points="835,-357.5 728,-357.5 728,-304.5 835,-304.5 835,-357.5"/>
<text text-anchor="middle" x="781.5" y="-342.3" font-family="Helvetica,sans-Serif" font-size="14.00" fill="#000000">gini = 0.0</text>
<text text-anchor="middle" x="781.5" y="-327.3" font-family="Helvetica,sans-Serif" font-size="14.00" fill="#000000">samples = 24</text>
<text text-anchor="middle" x="781.5" y="-312.3" font-family="Helvetica,sans-Serif" font-size="14.00" fill="#000000">value = [0, 24]</text>
</g>
<!-- 22&#45;&gt;24 -->
<g id="edge24" class="edge">
<title>22&#45;&gt;24</title>
<path fill="none" stroke="#000000" d="M700.1199,-400.9465C713.8324,-389.1606 729.1761,-375.9726 742.8127,-364.2519"/>
<polygon fill="#000000" stroke="#000000" points="745.3169,-366.7147 750.6192,-357.5422 740.7541,-361.4061 745.3169,-366.7147"/>
</g>
</g>
</svg>
