<?xml version="1.0" encoding="UTF-8" standalone="no"?>
<!DOCTYPE svg PUBLIC "-//W3C//DTD SVG 1.1//EN"
 "http://www.w3.org/Graphics/SVG/1.1/DTD/svg11.dtd">
<!-- Generated by graphviz version 2.40.1 (20161225.0304)
 -->
<!-- Title: Tree Pages: 1 -->
<svg width="954pt" height="685pt"
 viewBox="0.00 0.00 954.00 685.00" xmlns="http://www.w3.org/2000/svg" xmlns:xlink="http://www.w3.org/1999/xlink">
<g id="graph0" class="graph" transform="scale(1 1) rotate(0) translate(4 681)">
<title>Tree</title>
<polygon fill="#ffffff" stroke="transparent" points="-4,4 -4,-681 950,-681 950,4 -4,4"/>
<!-- 0 -->
<g id="node1" class="node">
<title>0</title>
<polygon fill="none" stroke="#000000" points="527.5,-677 411.5,-677 411.5,-609 527.5,-609 527.5,-677"/>
<text text-anchor="middle" x="469.5" y="-661.8" font-family="Helvetica,sans-Serif" font-size="14.00" fill="#000000">X[2] &lt;= 94.5</text>
<text text-anchor="middle" x="469.5" y="-646.8" font-family="Helvetica,sans-Serif" font-size="14.00" fill="#000000">gini = 0.481</text>
<text text-anchor="middle" x="469.5" y="-631.8" font-family="Helvetica,sans-Serif" font-size="14.00" fill="#000000">samples = 72</text>
<text text-anchor="middle" x="469.5" y="-616.8" font-family="Helvetica,sans-Serif" font-size="14.00" fill="#000000">value = [29, 43]</text>
</g>
<!-- 1 -->
<g id="node2" class="node">
<title>1</title>
<polygon fill="none" stroke="#000000" points="410.5,-573 294.5,-573 294.5,-505 410.5,-505 410.5,-573"/>
<text text-anchor="middle" x="352.5" y="-557.8" font-family="Helvetica,sans-Serif" font-size="14.00" fill="#000000">X[0] &lt;= 44.0</text>
<text text-anchor="middle" x="352.5" y="-542.8" font-family="Helvetica,sans-Serif" font-size="14.00" fill="#000000">gini = 0.467</text>
<text text-anchor="middle" x="352.5" y="-527.8" font-family="Helvetica,sans-Serif" font-size="14.00" fill="#000000">samples = 35</text>
<text text-anchor="middle" x="352.5" y="-512.8" font-family="Helvetica,sans-Serif" font-size="14.00" fill="#000000">value = [22, 13]</text>
</g>
<!-- 0&#45;&gt;1 -->
<g id="edge1" class="edge">
<title>0&#45;&gt;1</title>
<path fill="none" stroke="#000000" d="M431.1898,-608.9465C420.7859,-599.6986 409.411,-589.5876 398.6243,-579.9994"/>
<polygon fill="#000000" stroke="#000000" points="400.6956,-577.1577 390.8962,-573.13 396.0451,-582.3896 400.6956,-577.1577"/>
<text text-anchor="middle" x="392.3643" y="-594.3869" font-family="Helvetica,sans-Serif" font-size="14.00" fill="#000000">True</text>
</g>
<!-- 14 -->
<g id="node15" class="node">
<title>14</title>
<polygon fill="none" stroke="#000000" points="652,-573 533,-573 533,-505 652,-505 652,-573"/>
<text text-anchor="middle" x="592.5" y="-557.8" font-family="Helvetica,sans-Serif" font-size="14.00" fill="#000000">X[8] &lt;= 286.908</text>
<text text-anchor="middle" x="592.5" y="-542.8" font-family="Helvetica,sans-Serif" font-size="14.00" fill="#000000">gini = 0.307</text>
<text text-anchor="middle" x="592.5" y="-527.8" font-family="Helvetica,sans-Serif" font-size="14.00" fill="#000000">samples = 37</text>
<text text-anchor="middle" x="592.5" y="-512.8" font-family="Helvetica,sans-Serif" font-size="14.00" fill="#000000">value = [7, 30]</text>
</g>
<!-- 0&#45;&gt;14 -->
<g id="edge14" class="edge">
<title>0&#45;&gt;14</title>
<path fill="none" stroke="#000000" d="M509.7748,-608.9465C520.8184,-599.6088 532.9028,-589.3911 544.3404,-579.7203"/>
<polygon fill="#000000" stroke="#000000" points="546.7583,-582.2594 552.1347,-573.13 542.2386,-576.914 546.7583,-582.2594"/>
<text text-anchor="middle" x="550.0495" y="-594.3429" font-family="Helvetica,sans-Serif" font-size="14.00" fill="#000000">False</text>
</g>
<!-- 2 -->
<g id="node3" class="node">
<title>2</title>
<polygon fill="none" stroke="#000000" points="276,-461.5 177,-461.5 177,-408.5 276,-408.5 276,-461.5"/>
<text text-anchor="middle" x="226.5" y="-446.3" font-family="Helvetica,sans-Serif" font-size="14.00" fill="#000000">gini = 0.0</text>
<text text-anchor="middle" x="226.5" y="-431.3" font-family="Helvetica,sans-Serif" font-size="14.00" fill="#000000">samples = 8</text>
<text text-anchor="middle" x="226.5" y="-416.3" font-family="Helvetica,sans-Serif" font-size="14.00" fill="#000000">value = [8, 0]</text>
</g>
<!-- 1&#45;&gt;2 -->
<g id="edge2" class="edge">
<title>1&#45;&gt;2</title>
<path fill="none" stroke="#000000" d="M311.2429,-504.9465C296.8303,-493.0504 280.6873,-479.726 266.3883,-467.9237"/>
<polygon fill="#000000" stroke="#000000" points="268.5971,-465.2086 258.6569,-461.5422 264.1411,-470.6071 268.5971,-465.2086"/>
</g>
<!-- 3 -->
<g id="node4" class="node">
<title>3</title>
<polygon fill="none" stroke="#000000" points="410.5,-469 294.5,-469 294.5,-401 410.5,-401 410.5,-469"/>
<text text-anchor="middle" x="352.5" y="-453.8" font-family="Helvetica,sans-Serif" font-size="14.00" fill="#000000">X[0] &lt;= 66.5</text>
<text text-anchor="middle" x="352.5" y="-438.8" font-family="Helvetica,sans-Serif" font-size="14.00" fill="#000000">gini = 0.499</text>
<text text-anchor="middle" x="352.5" y="-423.8" font-family="Helvetica,sans-Serif" font-size="14.00" fill="#000000">samples = 27</text>
<text text-anchor="middle" x="352.5" y="-408.8" font-family="Helvetica,sans-Serif" font-size="14.00" fill="#000000">value = [14, 13]</text>
</g>
<!-- 1&#45;&gt;3 -->
<g id="edge3" class="edge">
<title>1&#45;&gt;3</title>
<path fill="none" stroke="#000000" d="M352.5,-504.9465C352.5,-496.776 352.5,-487.9318 352.5,-479.3697"/>
<polygon fill="#000000" stroke="#000000" points="356.0001,-479.13 352.5,-469.13 349.0001,-479.13 356.0001,-479.13"/>
</g>
<!-- 4 -->
<g id="node5" class="node">
<title>4</title>
<polygon fill="none" stroke="#000000" points="230,-365 123,-365 123,-297 230,-297 230,-365"/>
<text text-anchor="middle" x="176.5" y="-349.8" font-family="Helvetica,sans-Serif" font-size="14.00" fill="#000000">X[4] &lt;= 0.744</text>
<text text-anchor="middle" x="176.5" y="-334.8" font-family="Helvetica,sans-Serif" font-size="14.00" fill="#000000">gini = 0.415</text>
<text text-anchor="middle" x="176.5" y="-319.8" font-family="Helvetica,sans-Serif" font-size="14.00" fill="#000000">samples = 17</text>
<text text-anchor="middle" x="176.5" y="-304.8" font-family="Helvetica,sans-Serif" font-size="14.00" fill="#000000">value = [5, 12]</text>
</g>
<!-- 3&#45;&gt;4 -->
<g id="edge4" class="edge">
<title>3&#45;&gt;4</title>
<path fill="none" stroke="#000000" d="M294.871,-400.9465C276.951,-390.3574 257.1157,-378.6366 238.8868,-367.8649"/>
<polygon fill="#000000" stroke="#000000" points="240.4723,-364.7365 230.0825,-362.6624 236.9112,-370.763 240.4723,-364.7365"/>
</g>
<!-- 11 -->
<g id="node12" class="node">
<title>11</title>
<polygon fill="none" stroke="#000000" points="408,-365 297,-365 297,-297 408,-297 408,-365"/>
<text text-anchor="middle" x="352.5" y="-349.8" font-family="Helvetica,sans-Serif" font-size="14.00" fill="#000000">X[7] &lt;= 13.853</text>
<text text-anchor="middle" x="352.5" y="-334.8" font-family="Helvetica,sans-Serif" font-size="14.00" fill="#000000">gini = 0.18</text>
<text text-anchor="middle" x="352.5" y="-319.8" font-family="Helvetica,sans-Serif" font-size="14.00" fill="#000000">samples = 10</text>
<text text-anchor="middle" x="352.5" y="-304.8" font-family="Helvetica,sans-Serif" font-size="14.00" fill="#000000">value = [9, 1]</text>
</g>
<!-- 3&#45;&gt;11 -->
<g id="edge11" class="edge">
<title>3&#45;&gt;11</title>
<path fill="none" stroke="#000000" d="M352.5,-400.9465C352.5,-392.776 352.5,-383.9318 352.5,-375.3697"/>
<polygon fill="#000000" stroke="#000000" points="356.0001,-375.13 352.5,-365.13 349.0001,-375.13 356.0001,-375.13"/>
</g>
<!-- 5 -->
<g id="node6" class="node">
<title>5</title>
<polygon fill="none" stroke="#000000" points="99,-253.5 0,-253.5 0,-200.5 99,-200.5 99,-253.5"/>
<text text-anchor="middle" x="49.5" y="-238.3" font-family="Helvetica,sans-Serif" font-size="14.00" fill="#000000">gini = 0.0</text>
<text text-anchor="middle" x="49.5" y="-223.3" font-family="Helvetica,sans-Serif" font-size="14.00" fill="#000000">samples = 3</text>
<text text-anchor="middle" x="49.5" y="-208.3" font-family="Helvetica,sans-Serif" font-size="14.00" fill="#000000">value = [3, 0]</text>
</g>
<!-- 4&#45;&gt;5 -->
<g id="edge5" class="edge">
<title>4&#45;&gt;5</title>
<path fill="none" stroke="#000000" d="M134.9155,-296.9465C120.3885,-285.0504 104.1173,-271.726 89.7049,-259.9237"/>
<polygon fill="#000000" stroke="#000000" points="91.8665,-257.17 81.9121,-253.5422 87.4314,-262.5858 91.8665,-257.17"/>
</g>
<!-- 6 -->
<g id="node7" class="node">
<title>6</title>
<polygon fill="none" stroke="#000000" points="236,-261 117,-261 117,-193 236,-193 236,-261"/>
<text text-anchor="middle" x="176.5" y="-245.8" font-family="Helvetica,sans-Serif" font-size="14.00" fill="#000000">X[8] &lt;= 933.388</text>
<text text-anchor="middle" x="176.5" y="-230.8" font-family="Helvetica,sans-Serif" font-size="14.00" fill="#000000">gini = 0.245</text>
<text text-anchor="middle" x="176.5" y="-215.8" font-family="Helvetica,sans-Serif" font-size="14.00" fill="#000000">samples = 14</text>
<text text-anchor="middle" x="176.5" y="-200.8" font-family="Helvetica,sans-Serif" font-size="14.00" fill="#000000">value = [2, 12]</text>
</g>
<!-- 4&#45;&gt;6 -->
<g id="edge6" class="edge">
<title>4&#45;&gt;6</title>
<path fill="none" stroke="#000000" d="M176.5,-296.9465C176.5,-288.776 176.5,-279.9318 176.5,-271.3697"/>
<polygon fill="#000000" stroke="#000000" points="180.0001,-271.13 176.5,-261.13 173.0001,-271.13 180.0001,-271.13"/>
</g>
<!-- 7 -->
<g id="node8" class="node">
<title>7</title>
<polygon fill="none" stroke="#000000" points="170,-157 59,-157 59,-89 170,-89 170,-157"/>
<text text-anchor="middle" x="114.5" y="-141.8" font-family="Helvetica,sans-Serif" font-size="14.00" fill="#000000">X[1] &lt;= 35.108</text>
<text text-anchor="middle" x="114.5" y="-126.8" font-family="Helvetica,sans-Serif" font-size="14.00" fill="#000000">gini = 0.142</text>
<text text-anchor="middle" x="114.5" y="-111.8" font-family="Helvetica,sans-Serif" font-size="14.00" fill="#000000">samples = 13</text>
<text text-anchor="middle" x="114.5" y="-96.8" font-family="Helvetica,sans-Serif" font-size="14.00" fill="#000000">value = [1, 12]</text>
</g>
<!-- 6&#45;&gt;7 -->
<g id="edge7" class="edge">
<title>6&#45;&gt;7</title>
<path fill="none" stroke="#000000" d="M156.1989,-192.9465C151.0604,-184.3271 145.4749,-174.9579 140.1114,-165.9611"/>
<polygon fill="#000000" stroke="#000000" points="142.9737,-163.9272 134.8467,-157.13 136.9611,-167.5117 142.9737,-163.9272"/>
</g>
<!-- 10 -->
<g id="node11" class="node">
<title>10</title>
<polygon fill="none" stroke="#000000" points="287,-149.5 188,-149.5 188,-96.5 287,-96.5 287,-149.5"/>
<text text-anchor="middle" x="237.5" y="-134.3" font-family="Helvetica,sans-Serif" font-size="14.00" fill="#000000">gini = 0.0</text>
<text text-anchor="middle" x="237.5" y="-119.3" font-family="Helvetica,sans-Serif" font-size="14.00" fill="#000000">samples = 1</text>
<text text-anchor="middle" x="237.5" y="-104.3" font-family="Helvetica,sans-Serif" font-size="14.00" fill="#000000">value = [1, 0]</text>
</g>
<!-- 6&#45;&gt;10 -->
<g id="edge10" class="edge">
<title>6&#45;&gt;10</title>
<path fill="none" stroke="#000000" d="M196.4737,-192.9465C202.999,-181.8215 210.2569,-169.4473 216.8322,-158.237"/>
<polygon fill="#000000" stroke="#000000" points="219.8916,-159.9387 221.932,-149.5422 213.8536,-156.3971 219.8916,-159.9387"/>
</g>
<!-- 8 -->
<g id="node9" class="node">
<title>8</title>
<polygon fill="none" stroke="#000000" points="108,-53 1,-53 1,0 108,0 108,-53"/>
<text text-anchor="middle" x="54.5" y="-37.8" font-family="Helvetica,sans-Serif" font-size="14.00" fill="#000000">gini = 0.0</text>
<text text-anchor="middle" x="54.5" y="-22.8" font-family="Helvetica,sans-Serif" font-size="14.00" fill="#000000">samples = 12</text>
<text text-anchor="middle" x="54.5" y="-7.8" font-family="Helvetica,sans-Serif" font-size="14.00" fill="#000000">value = [0, 12]</text>
</g>
<!-- 7&#45;&gt;8 -->
<g id="edge8" class="edge">
<title>7&#45;&gt;8</title>
<path fill="none" stroke="#000000" d="M93.3462,-88.9777C87.8805,-80.187 81.9846,-70.7044 76.4778,-61.8477"/>
<polygon fill="#000000" stroke="#000000" points="79.3837,-59.8927 71.1312,-53.2485 73.4391,-63.5889 79.3837,-59.8927"/>
</g>
<!-- 9 -->
<g id="node10" class="node">
<title>9</title>
<polygon fill="none" stroke="#000000" points="225,-53 126,-53 126,0 225,0 225,-53"/>
<text text-anchor="middle" x="175.5" y="-37.8" font-family="Helvetica,sans-Serif" font-size="14.00" fill="#000000">gini = 0.0</text>
<text text-anchor="middle" x="175.5" y="-22.8" font-family="Helvetica,sans-Serif" font-size="14.00" fill="#000000">samples = 1</text>
<text text-anchor="middle" x="175.5" y="-7.8" font-family="Helvetica,sans-Serif" font-size="14.00" fill="#000000">value = [1, 0]</text>
</g>
<!-- 7&#45;&gt;9 -->
<g id="edge9" class="edge">
<title>7&#45;&gt;9</title>
<path fill="none" stroke="#000000" d="M136.0063,-88.9777C141.5631,-80.187 147.5573,-70.7044 153.1559,-61.8477"/>
<polygon fill="#000000" stroke="#000000" points="156.2069,-63.5714 158.5916,-53.2485 150.2899,-59.8312 156.2069,-63.5714"/>
</g>
<!-- 12 -->
<g id="node13" class="node">
<title>12</title>
<polygon fill="none" stroke="#000000" points="353,-253.5 254,-253.5 254,-200.5 353,-200.5 353,-253.5"/>
<text text-anchor="middle" x="303.5" y="-238.3" font-family="Helvetica,sans-Serif" font-size="14.00" fill="#000000">gini = 0.0</text>
<text text-anchor="middle" x="303.5" y="-223.3" font-family="Helvetica,sans-Serif" font-size="14.00" fill="#000000">samples = 9</text>
<text text-anchor="middle" x="303.5" y="-208.3" font-family="Helvetica,sans-Serif" font-size="14.00" fill="#000000">value = [9, 0]</text>
</g>
<!-- 11&#45;&gt;12 -->
<g id="edge12" class="edge">
<title>11&#45;&gt;12</title>
<path fill="none" stroke="#000000" d="M336.4556,-296.9465C331.3178,-286.0418 325.6145,-273.9368 320.4164,-262.9043"/>
<polygon fill="#000000" stroke="#000000" points="323.4338,-261.0966 316.0054,-253.5422 317.1015,-264.0802 323.4338,-261.0966"/>
</g>
<!-- 13 -->
<g id="node14" class="node">
<title>13</title>
<polygon fill="none" stroke="#000000" points="470,-253.5 371,-253.5 371,-200.5 470,-200.5 470,-253.5"/>
<text text-anchor="middle" x="420.5" y="-238.3" font-family="Helvetica,sans-Serif" font-size="14.00" fill="#000000">gini = 0.0</text>
<text text-anchor="middle" x="420.5" y="-223.3" font-family="Helvetica,sans-Serif" font-size="14.00" fill="#000000">samples = 1</text>
<text text-anchor="middle" x="420.5" y="-208.3" font-family="Helvetica,sans-Serif" font-size="14.00" fill="#000000">value = [0, 1]</text>
</g>
<!-- 11&#45;&gt;13 -->
<g id="edge13" class="edge">
<title>11&#45;&gt;13</title>
<path fill="none" stroke="#000000" d="M374.7657,-296.9465C382.0398,-285.8215 390.1306,-273.4473 397.4604,-262.237"/>
<polygon fill="#000000" stroke="#000000" points="400.6024,-263.8273 403.1455,-253.5422 394.7436,-259.9965 400.6024,-263.8273"/>
</g>
<!-- 15 -->
<g id="node16" class="node">
<title>15</title>
<polygon fill="none" stroke="#000000" points="644.5,-469 540.5,-469 540.5,-401 644.5,-401 644.5,-469"/>
<text text-anchor="middle" x="592.5" y="-453.8" font-family="Helvetica,sans-Serif" font-size="14.00" fill="#000000">X[9] &lt;= 8.954</text>
<text text-anchor="middle" x="592.5" y="-438.8" font-family="Helvetica,sans-Serif" font-size="14.00" fill="#000000">gini = 0.5</text>
<text text-anchor="middle" x="592.5" y="-423.8" font-family="Helvetica,sans-Serif" font-size="14.00" fill="#000000">samples = 12</text>
<text text-anchor="middle" x="592.5" y="-408.8" font-family="Helvetica,sans-Serif" font-size="14.00" fill="#000000">value = [6, 6]</text>
</g>
<!-- 14&#45;&gt;15 -->
<g id="edge15" class="edge">
<title>14&#45;&gt;15</title>
<path fill="none" stroke="#000000" d="M592.5,-504.9465C592.5,-496.776 592.5,-487.9318 592.5,-479.3697"/>
<polygon fill="#000000" stroke="#000000" points="596.0001,-479.13 592.5,-469.13 589.0001,-479.13 596.0001,-479.13"/>
</g>
<!-- 22 -->
<g id="node23" class="node">
<title>22</title>
<polygon fill="none" stroke="#000000" points="825,-469 718,-469 718,-401 825,-401 825,-469"/>
<text text-anchor="middle" x="771.5" y="-453.8" font-family="Helvetica,sans-Serif" font-size="14.00" fill="#000000">X[6] &lt;= 2.28</text>
<text text-anchor="middle" x="771.5" y="-438.8" font-family="Helvetica,sans-Serif" font-size="14.00" fill="#000000">gini = 0.077</text>
<text text-anchor="middle" x="771.5" y="-423.8" font-family="Helvetica,sans-Serif" font-size="14.00" fill="#000000">samples = 25</text>
<text text-anchor="middle" x="771.5" y="-408.8" font-family="Helvetica,sans-Serif" font-size="14.00" fill="#000000">value = [1, 24]</text>
</g>
<!-- 14&#45;&gt;22 -->
<g id="edge22" class="edge">
<title>14&#45;&gt;22</title>
<path fill="none" stroke="#000000" d="M651.1113,-504.9465C669.6837,-494.1558 690.2788,-482.19 709.1067,-471.2509"/>
<polygon fill="#000000" stroke="#000000" points="711.0158,-474.1896 717.904,-466.1396 707.4991,-468.137 711.0158,-474.1896"/>
</g>
<!-- 16 -->
<g id="node17" class="node">
<title>16</title>
<polygon fill="none" stroke="#000000" points="587,-365 488,-365 488,-297 587,-297 587,-365"/>
<text text-anchor="middle" x="537.5" y="-349.8" font-family="Helvetica,sans-Serif" font-size="14.00" fill="#000000">X[0] &lt;= 68.5</text>
<text text-anchor="middle" x="537.5" y="-334.8" font-family="Helvetica,sans-Serif" font-size="14.00" fill="#000000">gini = 0.444</text>
<text text-anchor="middle" x="537.5" y="-319.8" font-family="Helvetica,sans-Serif" font-size="14.00" fill="#000000">samples = 9</text>
<text text-anchor="middle" x="537.5" y="-304.8" font-family="Helvetica,sans-Serif" font-size="14.00" fill="#000000">value = [6, 3]</text>
</g>
<!-- 15&#45;&gt;16 -->
<g id="edge16" class="edge">
<title>15&#45;&gt;16</title>
<path fill="none" stroke="#000000" d="M574.4909,-400.9465C569.9801,-392.4169 565.0809,-383.153 560.3686,-374.2424"/>
<polygon fill="#000000" stroke="#000000" points="563.3185,-372.3337 555.5495,-365.13 557.1306,-375.6062 563.3185,-372.3337"/>
</g>
<!-- 21 -->
<g id="node22" class="node">
<title>21</title>
<polygon fill="none" stroke="#000000" points="704,-357.5 605,-357.5 605,-304.5 704,-304.5 704,-357.5"/>
<text text-anchor="middle" x="654.5" y="-342.3" font-family="Helvetica,sans-Serif" font-size="14.00" fill="#000000">gini = 0.0</text>
<text text-anchor="middle" x="654.5" y="-327.3" font-family="Helvetica,sans-Serif" font-size="14.00" fill="#000000">samples = 3</text>
<text text-anchor="middle" x="654.5" y="-312.3" font-family="Helvetica,sans-Serif" font-size="14.00" fill="#000000">value = [0, 3]</text>
</g>
<!-- 15&#45;&gt;21 -->
<g id="edge21" class="edge">
<title>15&#45;&gt;21</title>
<path fill="none" stroke="#000000" d="M612.8011,-400.9465C619.4334,-389.8215 626.8103,-377.4473 633.4933,-366.237"/>
<polygon fill="#000000" stroke="#000000" points="636.5624,-367.9239 638.6768,-357.5422 630.5498,-364.3394 636.5624,-367.9239"/>
</g>
<!-- 17 -->
<g id="node18" class="node">
<title>17</title>
<polygon fill="none" stroke="#000000" points="587,-253.5 488,-253.5 488,-200.5 587,-200.5 587,-253.5"/>
<text text-anchor="middle" x="537.5" y="-238.3" font-family="Helvetica,sans-Serif" font-size="14.00" fill="#000000">gini = 0.0</text>
<text text-anchor="middle" x="537.5" y="-223.3" font-family="Helvetica,sans-Serif" font-size="14.00" fill="#000000">samples = 2</text>
<text text-anchor="middle" x="537.5" y="-208.3" font-family="Helvetica,sans-Serif" font-size="14.00" fill="#000000">value = [0, 2]</text>
</g>
<!-- 16&#45;&gt;17 -->
<g id="edge17" class="edge">
<title>16&#45;&gt;17</title>
<path fill="none" stroke="#000000" d="M537.5,-296.9465C537.5,-286.2621 537.5,-274.4254 537.5,-263.5742"/>
<polygon fill="#000000" stroke="#000000" points="541.0001,-263.5421 537.5,-253.5422 534.0001,-263.5422 541.0001,-263.5421"/>
</g>
<!-- 18 -->
<g id="node19" class="node">
<title>18</title>
<polygon fill="none" stroke="#000000" points="708,-261 605,-261 605,-193 708,-193 708,-261"/>
<text text-anchor="middle" x="656.5" y="-245.8" font-family="Helvetica,sans-Serif" font-size="14.00" fill="#000000">X[6] &lt;= 3.296</text>
<text text-anchor="middle" x="656.5" y="-230.8" font-family="Helvetica,sans-Serif" font-size="14.00" fill="#000000">gini = 0.245</text>
<text text-anchor="middle" x="656.5" y="-215.8" font-family="Helvetica,sans-Serif" font-size="14.00" fill="#000000">samples = 7</text>
<text text-anchor="middle" x="656.5" y="-200.8" font-family="Helvetica,sans-Serif" font-size="14.00" fill="#000000">value = [6, 1]</text>
</g>
<!-- 16&#45;&gt;18 -->
<g id="edge18" class="edge">
<title>16&#45;&gt;18</title>
<path fill="none" stroke="#000000" d="M576.4651,-296.9465C587.1495,-287.6088 598.8409,-277.3911 609.9066,-267.7203"/>
<polygon fill="#000000" stroke="#000000" points="612.2209,-270.346 617.4474,-261.13 607.6145,-265.0752 612.2209,-270.346"/>
</g>
<!-- 19 -->
<g id="node20" class="node">
<title>19</title>
<polygon fill="none" stroke="#000000" points="647,-149.5 548,-149.5 548,-96.5 647,-96.5 647,-149.5"/>
<text text-anchor="middle" x="597.5" y="-134.3" font-family="Helvetica,sans-Serif" font-size="14.00" fill="#000000">gini = 0.0</text>
<text text-anchor="middle" x="597.5" y="-119.3" font-family="Helvetica,sans-Serif" font-size="14.00" fill="#000000">samples = 1</text>
<text text-anchor="middle" x="597.5" y="-104.3" font-family="Helvetica,sans-Serif" font-size="14.00" fill="#000000">value = [0, 1]</text>
</g>
<!-- 18&#45;&gt;19 -->
<g id="edge19" class="edge">
<title>18&#45;&gt;19</title>
<path fill="none" stroke="#000000" d="M637.1812,-192.9465C630.9324,-181.9316 623.9888,-169.6922 617.6793,-158.5703"/>
<polygon fill="#000000" stroke="#000000" points="620.5362,-156.513 612.5576,-149.5422 614.4477,-159.967 620.5362,-156.513"/>
</g>
<!-- 20 -->
<g id="node21" class="node">
<title>20</title>
<polygon fill="none" stroke="#000000" points="764,-149.5 665,-149.5 665,-96.5 764,-96.5 764,-149.5"/>
<text text-anchor="middle" x="714.5" y="-134.3" font-family="Helvetica,sans-Serif" font-size="14.00" fill="#000000">gini = 0.0</text>
<text text-anchor="middle" x="714.5" y="-119.3" font-family="Helvetica,sans-Serif" font-size="14.00" fill="#000000">samples = 6</text>
<text text-anchor="middle" x="714.5" y="-104.3" font-family="Helvetica,sans-Serif" font-size="14.00" fill="#000000">value = [6, 0]</text>
</g>
<!-- 18&#45;&gt;20 -->
<g id="edge20" class="edge">
<title>18&#45;&gt;20</title>
<path fill="none" stroke="#000000" d="M675.4914,-192.9465C681.6343,-181.9316 688.4601,-169.6922 694.6627,-158.5703"/>
<polygon fill="#000000" stroke="#000000" points="697.8837,-159.9806 699.6976,-149.5422 691.7701,-156.5711 697.8837,-159.9806"/>
</g>
<!-- 23 -->
<g id="node24" class="node">
<title>23</title>
<polygon fill="none" stroke="#000000" points="821,-357.5 722,-357.5 722,-304.5 821,-304.5 821,-357.5"/>
<text text-anchor="middle" x="771.5" y="-342.3" font-family="Helvetica,sans-Serif" font-size="14.00" fill="#000000">gini = 0.0</text>
<text text-anchor="middle" x="771.5" y="-327.3" font-family="Helvetica,sans-Serif" font-size="14.00" fill="#000000">samples = 1</text>
<text text-anchor="middle" x="771.5" y="-312.3" font-family="Helvetica,sans-Serif" font-size="14.00" fill="#000000">value = [1, 0]</text>
</g>
<!-- 22&#45;&gt;23 -->
<g id="edge23" class="edge">
<title>22&#45;&gt;23</title>
<path fill="none" stroke="#000000" d="M771.5,-400.9465C771.5,-390.2621 771.5,-378.4254 771.5,-367.5742"/>
<polygon fill="#000000" stroke="#000000" points="775.0001,-367.5421 771.5,-357.5422 768.0001,-367.5422 775.0001,-367.5421"/>
</g>
<!-- 24 -->
<g id="node25" class="node">
<title>24</title>
<polygon fill="none" stroke="#000000" points="946,-357.5 839,-357.5 839,-304.5 946,-304.5 946,-357.5"/>
<text text-anchor="middle" x="892.5" y="-342.3" font-family="Helvetica,sans-Serif" font-size="14.00" fill="#000000">gini = 0.0</text>
<text text-anchor="middle" x="892.5" y="-327.3" font-family="Helvetica,sans-Serif" font-size="14.00" fill="#000000">samples = 24</text>
<text text-anchor="middle" x="892.5" y="-312.3" font-family="Helvetica,sans-Serif" font-size="14.00" fill="#000000">value = [0, 24]</text>
</g>
<!-- 22&#45;&gt;24 -->
<g id="edge24" class="edge">
<title>22&#45;&gt;24</title>
<path fill="none" stroke="#000000" d="M811.1199,-400.9465C824.8324,-389.1606 840.1761,-375.9726 853.8127,-364.2519"/>
<polygon fill="#000000" stroke="#000000" points="856.3169,-366.7147 861.6192,-357.5422 851.7541,-361.4061 856.3169,-366.7147"/>
</g>
</g>
</svg>
