<?xml version="1.0" encoding="UTF-8" standalone="no"?>
<!DOCTYPE svg PUBLIC "-//W3C//DTD SVG 1.1//EN"
 "http://www.w3.org/Graphics/SVG/1.1/DTD/svg11.dtd">
<!-- Generated by graphviz version 2.40.1 (20161225.0304)
 -->
<!-- Title: Tree Pages: 1 -->
<svg width="854pt" height="685pt"
 viewBox="0.00 0.00 854.00 685.00" xmlns="http://www.w3.org/2000/svg" xmlns:xlink="http://www.w3.org/1999/xlink">
<g id="graph0" class="graph" transform="scale(1 1) rotate(0) translate(4 681)">
<title>Tree</title>
<polygon fill="#ffffff" stroke="transparent" points="-4,4 -4,-681 850,-681 850,4 -4,4"/>
<!-- 0 -->
<g id="node1" class="node">
<title>0</title>
<polygon fill="none" stroke="#000000" points="432.5,-677 316.5,-677 316.5,-609 432.5,-609 432.5,-677"/>
<text text-anchor="middle" x="374.5" y="-661.8" font-family="Helvetica,sans-Serif" font-size="14.00" fill="#000000">X[2] &lt;= 94.5</text>
<text text-anchor="middle" x="374.5" y="-646.8" font-family="Helvetica,sans-Serif" font-size="14.00" fill="#000000">gini = 0.481</text>
<text text-anchor="middle" x="374.5" y="-631.8" font-family="Helvetica,sans-Serif" font-size="14.00" fill="#000000">samples = 72</text>
<text text-anchor="middle" x="374.5" y="-616.8" font-family="Helvetica,sans-Serif" font-size="14.00" fill="#000000">value = [29, 43]</text>
</g>
<!-- 1 -->
<g id="node2" class="node">
<title>1</title>
<polygon fill="none" stroke="#000000" points="364.5,-573 248.5,-573 248.5,-505 364.5,-505 364.5,-573"/>
<text text-anchor="middle" x="306.5" y="-557.8" font-family="Helvetica,sans-Serif" font-size="14.00" fill="#000000">X[0] &lt;= 44.0</text>
<text text-anchor="middle" x="306.5" y="-542.8" font-family="Helvetica,sans-Serif" font-size="14.00" fill="#000000">gini = 0.467</text>
<text text-anchor="middle" x="306.5" y="-527.8" font-family="Helvetica,sans-Serif" font-size="14.00" fill="#000000">samples = 35</text>
<text text-anchor="middle" x="306.5" y="-512.8" font-family="Helvetica,sans-Serif" font-size="14.00" fill="#000000">value = [22, 13]</text>
</g>
<!-- 0&#45;&gt;1 -->
<g id="edge1" class="edge">
<title>0&#45;&gt;1</title>
<path fill="none" stroke="#000000" d="M352.2343,-608.9465C346.5398,-600.2373 340.3448,-590.7626 334.4062,-581.6801"/>
<polygon fill="#000000" stroke="#000000" points="337.2177,-579.5843 328.8158,-573.13 331.3589,-583.4151 337.2177,-579.5843"/>
<text text-anchor="middle" x="323.6942" y="-593.8998" font-family="Helvetica,sans-Serif" font-size="14.00" fill="#000000">True</text>
</g>
<!-- 14 -->
<g id="node15" class="node">
<title>14</title>
<polygon fill="none" stroke="#000000" points="554,-573 435,-573 435,-505 554,-505 554,-573"/>
<text text-anchor="middle" x="494.5" y="-557.8" font-family="Helvetica,sans-Serif" font-size="14.00" fill="#000000">X[8] &lt;= 286.908</text>
<text text-anchor="middle" x="494.5" y="-542.8" font-family="Helvetica,sans-Serif" font-size="14.00" fill="#000000">gini = 0.307</text>
<text text-anchor="middle" x="494.5" y="-527.8" font-family="Helvetica,sans-Serif" font-size="14.00" fill="#000000">samples = 37</text>
<text text-anchor="middle" x="494.5" y="-512.8" font-family="Helvetica,sans-Serif" font-size="14.00" fill="#000000">value = [7, 30]</text>
</g>
<!-- 0&#45;&gt;14 -->
<g id="edge14" class="edge">
<title>0&#45;&gt;14</title>
<path fill="none" stroke="#000000" d="M413.7925,-608.9465C424.5667,-599.6088 436.3564,-589.3911 447.515,-579.7203"/>
<polygon fill="#000000" stroke="#000000" points="449.8546,-582.3243 455.1192,-573.13 445.2701,-577.0344 449.8546,-582.3243"/>
<text text-anchor="middle" x="453.3381" y="-594.3665" font-family="Helvetica,sans-Serif" font-size="14.00" fill="#000000">False</text>
</g>
<!-- 2 -->
<g id="node3" class="node">
<title>2</title>
<polygon fill="none" stroke="#000000" points="230,-461.5 131,-461.5 131,-408.5 230,-408.5 230,-461.5"/>
<text text-anchor="middle" x="180.5" y="-446.3" font-family="Helvetica,sans-Serif" font-size="14.00" fill="#000000">gini = 0.0</text>
<text text-anchor="middle" x="180.5" y="-431.3" font-family="Helvetica,sans-Serif" font-size="14.00" fill="#000000">samples = 8</text>
<text text-anchor="middle" x="180.5" y="-416.3" font-family="Helvetica,sans-Serif" font-size="14.00" fill="#000000">value = [8, 0]</text>
</g>
<!-- 1&#45;&gt;2 -->
<g id="edge2" class="edge">
<title>1&#45;&gt;2</title>
<path fill="none" stroke="#000000" d="M265.2429,-504.9465C250.8303,-493.0504 234.6873,-479.726 220.3883,-467.9237"/>
<polygon fill="#000000" stroke="#000000" points="222.5971,-465.2086 212.6569,-461.5422 218.1411,-470.6071 222.5971,-465.2086"/>
</g>
<!-- 3 -->
<g id="node4" class="node">
<title>3</title>
<polygon fill="none" stroke="#000000" points="364.5,-469 248.5,-469 248.5,-401 364.5,-401 364.5,-469"/>
<text text-anchor="middle" x="306.5" y="-453.8" font-family="Helvetica,sans-Serif" font-size="14.00" fill="#000000">X[0] &lt;= 66.5</text>
<text text-anchor="middle" x="306.5" y="-438.8" font-family="Helvetica,sans-Serif" font-size="14.00" fill="#000000">gini = 0.499</text>
<text text-anchor="middle" x="306.5" y="-423.8" font-family="Helvetica,sans-Serif" font-size="14.00" fill="#000000">samples = 27</text>
<text text-anchor="middle" x="306.5" y="-408.8" font-family="Helvetica,sans-Serif" font-size="14.00" fill="#000000">value = [14, 13]</text>
</g>
<!-- 1&#45;&gt;3 -->
<g id="edge3" class="edge">
<title>1&#45;&gt;3</title>
<path fill="none" stroke="#000000" d="M306.5,-504.9465C306.5,-496.776 306.5,-487.9318 306.5,-479.3697"/>
<polygon fill="#000000" stroke="#000000" points="310.0001,-479.13 306.5,-469.13 303.0001,-479.13 310.0001,-479.13"/>
</g>
<!-- 4 -->
<g id="node5" class="node">
<title>4</title>
<polygon fill="none" stroke="#000000" points="229,-365 122,-365 122,-297 229,-297 229,-365"/>
<text text-anchor="middle" x="175.5" y="-349.8" font-family="Helvetica,sans-Serif" font-size="14.00" fill="#000000">X[4] &lt;= 0.744</text>
<text text-anchor="middle" x="175.5" y="-334.8" font-family="Helvetica,sans-Serif" font-size="14.00" fill="#000000">gini = 0.415</text>
<text text-anchor="middle" x="175.5" y="-319.8" font-family="Helvetica,sans-Serif" font-size="14.00" fill="#000000">samples = 17</text>
<text text-anchor="middle" x="175.5" y="-304.8" font-family="Helvetica,sans-Serif" font-size="14.00" fill="#000000">value = [5, 12]</text>
</g>
<!-- 3&#45;&gt;4 -->
<g id="edge4" class="edge">
<title>3&#45;&gt;4</title>
<path fill="none" stroke="#000000" d="M263.6057,-400.9465C251.7307,-391.519 238.7259,-381.1946 226.4407,-371.4415"/>
<polygon fill="#000000" stroke="#000000" points="228.4989,-368.6066 218.4907,-365.13 224.1464,-374.089 228.4989,-368.6066"/>
</g>
<!-- 11 -->
<g id="node12" class="node">
<title>11</title>
<polygon fill="none" stroke="#000000" points="366,-365 247,-365 247,-297 366,-297 366,-365"/>
<text text-anchor="middle" x="306.5" y="-349.8" font-family="Helvetica,sans-Serif" font-size="14.00" fill="#000000">X[10] &lt;= 72.181</text>
<text text-anchor="middle" x="306.5" y="-334.8" font-family="Helvetica,sans-Serif" font-size="14.00" fill="#000000">gini = 0.18</text>
<text text-anchor="middle" x="306.5" y="-319.8" font-family="Helvetica,sans-Serif" font-size="14.00" fill="#000000">samples = 10</text>
<text text-anchor="middle" x="306.5" y="-304.8" font-family="Helvetica,sans-Serif" font-size="14.00" fill="#000000">value = [9, 1]</text>
</g>
<!-- 3&#45;&gt;11 -->
<g id="edge11" class="edge">
<title>3&#45;&gt;11</title>
<path fill="none" stroke="#000000" d="M306.5,-400.9465C306.5,-392.776 306.5,-383.9318 306.5,-375.3697"/>
<polygon fill="#000000" stroke="#000000" points="310.0001,-375.13 306.5,-365.13 303.0001,-375.13 310.0001,-375.13"/>
</g>
<!-- 5 -->
<g id="node6" class="node">
<title>5</title>
<polygon fill="none" stroke="#000000" points="104,-253.5 5,-253.5 5,-200.5 104,-200.5 104,-253.5"/>
<text text-anchor="middle" x="54.5" y="-238.3" font-family="Helvetica,sans-Serif" font-size="14.00" fill="#000000">gini = 0.0</text>
<text text-anchor="middle" x="54.5" y="-223.3" font-family="Helvetica,sans-Serif" font-size="14.00" fill="#000000">samples = 3</text>
<text text-anchor="middle" x="54.5" y="-208.3" font-family="Helvetica,sans-Serif" font-size="14.00" fill="#000000">value = [3, 0]</text>
</g>
<!-- 4&#45;&gt;5 -->
<g id="edge5" class="edge">
<title>4&#45;&gt;5</title>
<path fill="none" stroke="#000000" d="M135.8801,-296.9465C122.1676,-285.1606 106.8239,-271.9726 93.1873,-260.2519"/>
<polygon fill="#000000" stroke="#000000" points="95.2459,-257.4061 85.3808,-253.5422 90.6831,-262.7147 95.2459,-257.4061"/>
</g>
<!-- 6 -->
<g id="node7" class="node">
<title>6</title>
<polygon fill="none" stroke="#000000" points="233,-261 122,-261 122,-193 233,-193 233,-261"/>
<text text-anchor="middle" x="177.5" y="-245.8" font-family="Helvetica,sans-Serif" font-size="14.00" fill="#000000">X[1] &lt;= 35.108</text>
<text text-anchor="middle" x="177.5" y="-230.8" font-family="Helvetica,sans-Serif" font-size="14.00" fill="#000000">gini = 0.245</text>
<text text-anchor="middle" x="177.5" y="-215.8" font-family="Helvetica,sans-Serif" font-size="14.00" fill="#000000">samples = 14</text>
<text text-anchor="middle" x="177.5" y="-200.8" font-family="Helvetica,sans-Serif" font-size="14.00" fill="#000000">value = [2, 12]</text>
</g>
<!-- 4&#45;&gt;6 -->
<g id="edge6" class="edge">
<title>4&#45;&gt;6</title>
<path fill="none" stroke="#000000" d="M176.1549,-296.9465C176.312,-288.776 176.4821,-279.9318 176.6467,-271.3697"/>
<polygon fill="#000000" stroke="#000000" points="180.1506,-271.1955 176.8437,-261.13 173.1519,-271.0608 180.1506,-271.1955"/>
</g>
<!-- 7 -->
<g id="node8" class="node">
<title>7</title>
<polygon fill="none" stroke="#000000" points="173,-157 54,-157 54,-89 173,-89 173,-157"/>
<text text-anchor="middle" x="113.5" y="-141.8" font-family="Helvetica,sans-Serif" font-size="14.00" fill="#000000">X[8] &lt;= 933.388</text>
<text text-anchor="middle" x="113.5" y="-126.8" font-family="Helvetica,sans-Serif" font-size="14.00" fill="#000000">gini = 0.142</text>
<text text-anchor="middle" x="113.5" y="-111.8" font-family="Helvetica,sans-Serif" font-size="14.00" fill="#000000">samples = 13</text>
<text text-anchor="middle" x="113.5" y="-96.8" font-family="Helvetica,sans-Serif" font-size="14.00" fill="#000000">value = [1, 12]</text>
</g>
<!-- 6&#45;&gt;7 -->
<g id="edge7" class="edge">
<title>6&#45;&gt;7</title>
<path fill="none" stroke="#000000" d="M156.544,-192.9465C151.1845,-184.2373 145.3539,-174.7626 139.7647,-165.6801"/>
<polygon fill="#000000" stroke="#000000" points="142.7249,-163.8122 134.5031,-157.13 136.7633,-167.481 142.7249,-163.8122"/>
</g>
<!-- 10 -->
<g id="node11" class="node">
<title>10</title>
<polygon fill="none" stroke="#000000" points="290,-149.5 191,-149.5 191,-96.5 290,-96.5 290,-149.5"/>
<text text-anchor="middle" x="240.5" y="-134.3" font-family="Helvetica,sans-Serif" font-size="14.00" fill="#000000">gini = 0.0</text>
<text text-anchor="middle" x="240.5" y="-119.3" font-family="Helvetica,sans-Serif" font-size="14.00" fill="#000000">samples = 1</text>
<text text-anchor="middle" x="240.5" y="-104.3" font-family="Helvetica,sans-Serif" font-size="14.00" fill="#000000">value = [1, 0]</text>
</g>
<!-- 6&#45;&gt;10 -->
<g id="edge10" class="edge">
<title>6&#45;&gt;10</title>
<path fill="none" stroke="#000000" d="M198.1286,-192.9465C204.8678,-181.8215 212.3637,-169.4473 219.1545,-158.237"/>
<polygon fill="#000000" stroke="#000000" points="222.2339,-159.9087 224.4216,-149.5422 216.2467,-156.2818 222.2339,-159.9087"/>
</g>
<!-- 8 -->
<g id="node9" class="node">
<title>8</title>
<polygon fill="none" stroke="#000000" points="107,-53 0,-53 0,0 107,0 107,-53"/>
<text text-anchor="middle" x="53.5" y="-37.8" font-family="Helvetica,sans-Serif" font-size="14.00" fill="#000000">gini = 0.0</text>
<text text-anchor="middle" x="53.5" y="-22.8" font-family="Helvetica,sans-Serif" font-size="14.00" fill="#000000">samples = 12</text>
<text text-anchor="middle" x="53.5" y="-7.8" font-family="Helvetica,sans-Serif" font-size="14.00" fill="#000000">value = [0, 12]</text>
</g>
<!-- 7&#45;&gt;8 -->
<g id="edge8" class="edge">
<title>7&#45;&gt;8</title>
<path fill="none" stroke="#000000" d="M92.3462,-88.9777C86.8805,-80.187 80.9846,-70.7044 75.4778,-61.8477"/>
<polygon fill="#000000" stroke="#000000" points="78.3837,-59.8927 70.1312,-53.2485 72.4391,-63.5889 78.3837,-59.8927"/>
</g>
<!-- 9 -->
<g id="node10" class="node">
<title>9</title>
<polygon fill="none" stroke="#000000" points="224,-53 125,-53 125,0 224,0 224,-53"/>
<text text-anchor="middle" x="174.5" y="-37.8" font-family="Helvetica,sans-Serif" font-size="14.00" fill="#000000">gini = 0.0</text>
<text text-anchor="middle" x="174.5" y="-22.8" font-family="Helvetica,sans-Serif" font-size="14.00" fill="#000000">samples = 1</text>
<text text-anchor="middle" x="174.5" y="-7.8" font-family="Helvetica,sans-Serif" font-size="14.00" fill="#000000">value = [1, 0]</text>
</g>
<!-- 7&#45;&gt;9 -->
<g id="edge9" class="edge">
<title>7&#45;&gt;9</title>
<path fill="none" stroke="#000000" d="M135.0063,-88.9777C140.5631,-80.187 146.5573,-70.7044 152.1559,-61.8477"/>
<polygon fill="#000000" stroke="#000000" points="155.2069,-63.5714 157.5916,-53.2485 149.2899,-59.8312 155.2069,-63.5714"/>
</g>
<!-- 12 -->
<g id="node13" class="node">
<title>12</title>
<polygon fill="none" stroke="#000000" points="354,-253.5 255,-253.5 255,-200.5 354,-200.5 354,-253.5"/>
<text text-anchor="middle" x="304.5" y="-238.3" font-family="Helvetica,sans-Serif" font-size="14.00" fill="#000000">gini = 0.0</text>
<text text-anchor="middle" x="304.5" y="-223.3" font-family="Helvetica,sans-Serif" font-size="14.00" fill="#000000">samples = 1</text>
<text text-anchor="middle" x="304.5" y="-208.3" font-family="Helvetica,sans-Serif" font-size="14.00" fill="#000000">value = [0, 1]</text>
</g>
<!-- 11&#45;&gt;12 -->
<g id="edge12" class="edge">
<title>11&#45;&gt;12</title>
<path fill="none" stroke="#000000" d="M305.8451,-296.9465C305.6397,-286.2621 305.412,-274.4254 305.2034,-263.5742"/>
<polygon fill="#000000" stroke="#000000" points="308.7021,-263.473 305.0104,-253.5422 301.7034,-263.6076 308.7021,-263.473"/>
</g>
<!-- 13 -->
<g id="node14" class="node">
<title>13</title>
<polygon fill="none" stroke="#000000" points="471,-253.5 372,-253.5 372,-200.5 471,-200.5 471,-253.5"/>
<text text-anchor="middle" x="421.5" y="-238.3" font-family="Helvetica,sans-Serif" font-size="14.00" fill="#000000">gini = 0.0</text>
<text text-anchor="middle" x="421.5" y="-223.3" font-family="Helvetica,sans-Serif" font-size="14.00" fill="#000000">samples = 9</text>
<text text-anchor="middle" x="421.5" y="-208.3" font-family="Helvetica,sans-Serif" font-size="14.00" fill="#000000">value = [9, 0]</text>
</g>
<!-- 11&#45;&gt;13 -->
<g id="edge13" class="edge">
<title>11&#45;&gt;13</title>
<path fill="none" stroke="#000000" d="M344.1553,-296.9465C357.1878,-285.1606 371.7706,-271.9726 384.7311,-260.2519"/>
<polygon fill="#000000" stroke="#000000" points="387.0812,-262.8456 392.1505,-253.5422 382.386,-257.6537 387.0812,-262.8456"/>
</g>
<!-- 15 -->
<g id="node16" class="node">
<title>15</title>
<polygon fill="none" stroke="#000000" points="546.5,-469 442.5,-469 442.5,-401 546.5,-401 546.5,-469"/>
<text text-anchor="middle" x="494.5" y="-453.8" font-family="Helvetica,sans-Serif" font-size="14.00" fill="#000000">X[0] &lt;= 68.5</text>
<text text-anchor="middle" x="494.5" y="-438.8" font-family="Helvetica,sans-Serif" font-size="14.00" fill="#000000">gini = 0.5</text>
<text text-anchor="middle" x="494.5" y="-423.8" font-family="Helvetica,sans-Serif" font-size="14.00" fill="#000000">samples = 12</text>
<text text-anchor="middle" x="494.5" y="-408.8" font-family="Helvetica,sans-Serif" font-size="14.00" fill="#000000">value = [6, 6]</text>
</g>
<!-- 14&#45;&gt;15 -->
<g id="edge15" class="edge">
<title>14&#45;&gt;15</title>
<path fill="none" stroke="#000000" d="M494.5,-504.9465C494.5,-496.776 494.5,-487.9318 494.5,-479.3697"/>
<polygon fill="#000000" stroke="#000000" points="498.0001,-479.13 494.5,-469.13 491.0001,-479.13 498.0001,-479.13"/>
</g>
<!-- 22 -->
<g id="node23" class="node">
<title>22</title>
<polygon fill="none" stroke="#000000" points="725,-469 618,-469 618,-401 725,-401 725,-469"/>
<text text-anchor="middle" x="671.5" y="-453.8" font-family="Helvetica,sans-Serif" font-size="14.00" fill="#000000">X[6] &lt;= 2.28</text>
<text text-anchor="middle" x="671.5" y="-438.8" font-family="Helvetica,sans-Serif" font-size="14.00" fill="#000000">gini = 0.077</text>
<text text-anchor="middle" x="671.5" y="-423.8" font-family="Helvetica,sans-Serif" font-size="14.00" fill="#000000">samples = 25</text>
<text text-anchor="middle" x="671.5" y="-408.8" font-family="Helvetica,sans-Serif" font-size="14.00" fill="#000000">value = [1, 24]</text>
</g>
<!-- 14&#45;&gt;22 -->
<g id="edge22" class="edge">
<title>14&#45;&gt;22</title>
<path fill="none" stroke="#000000" d="M552.4564,-504.9465C570.6472,-494.2581 590.8004,-482.4167 609.2739,-471.5622"/>
<polygon fill="#000000" stroke="#000000" points="611.0613,-474.5715 617.9101,-466.4879 607.5151,-468.5362 611.0613,-474.5715"/>
</g>
<!-- 16 -->
<g id="node17" class="node">
<title>16</title>
<polygon fill="none" stroke="#000000" points="483,-357.5 384,-357.5 384,-304.5 483,-304.5 483,-357.5"/>
<text text-anchor="middle" x="433.5" y="-342.3" font-family="Helvetica,sans-Serif" font-size="14.00" fill="#000000">gini = 0.0</text>
<text text-anchor="middle" x="433.5" y="-327.3" font-family="Helvetica,sans-Serif" font-size="14.00" fill="#000000">samples = 3</text>
<text text-anchor="middle" x="433.5" y="-312.3" font-family="Helvetica,sans-Serif" font-size="14.00" fill="#000000">value = [0, 3]</text>
</g>
<!-- 15&#45;&gt;16 -->
<g id="edge16" class="edge">
<title>15&#45;&gt;16</title>
<path fill="none" stroke="#000000" d="M474.5263,-400.9465C468.001,-389.8215 460.7431,-377.4473 454.1678,-366.237"/>
<polygon fill="#000000" stroke="#000000" points="457.1464,-364.3971 449.068,-357.5422 451.1084,-367.9387 457.1464,-364.3971"/>
</g>
<!-- 17 -->
<g id="node18" class="node">
<title>17</title>
<polygon fill="none" stroke="#000000" points="604,-365 501,-365 501,-297 604,-297 604,-365"/>
<text text-anchor="middle" x="552.5" y="-349.8" font-family="Helvetica,sans-Serif" font-size="14.00" fill="#000000">X[9] &lt;= 8.954</text>
<text text-anchor="middle" x="552.5" y="-334.8" font-family="Helvetica,sans-Serif" font-size="14.00" fill="#000000">gini = 0.444</text>
<text text-anchor="middle" x="552.5" y="-319.8" font-family="Helvetica,sans-Serif" font-size="14.00" fill="#000000">samples = 9</text>
<text text-anchor="middle" x="552.5" y="-304.8" font-family="Helvetica,sans-Serif" font-size="14.00" fill="#000000">value = [6, 3]</text>
</g>
<!-- 15&#45;&gt;17 -->
<g id="edge17" class="edge">
<title>15&#45;&gt;17</title>
<path fill="none" stroke="#000000" d="M513.4914,-400.9465C518.2983,-392.3271 523.5235,-382.9579 528.5409,-373.9611"/>
<polygon fill="#000000" stroke="#000000" points="531.652,-375.5684 533.466,-365.13 525.5385,-372.1589 531.652,-375.5684"/>
</g>
<!-- 18 -->
<g id="node19" class="node">
<title>18</title>
<polygon fill="none" stroke="#000000" points="598,-261 495,-261 495,-193 598,-193 598,-261"/>
<text text-anchor="middle" x="546.5" y="-245.8" font-family="Helvetica,sans-Serif" font-size="14.00" fill="#000000">X[6] &lt;= 3.296</text>
<text text-anchor="middle" x="546.5" y="-230.8" font-family="Helvetica,sans-Serif" font-size="14.00" fill="#000000">gini = 0.245</text>
<text text-anchor="middle" x="546.5" y="-215.8" font-family="Helvetica,sans-Serif" font-size="14.00" fill="#000000">samples = 7</text>
<text text-anchor="middle" x="546.5" y="-200.8" font-family="Helvetica,sans-Serif" font-size="14.00" fill="#000000">value = [6, 1]</text>
</g>
<!-- 17&#45;&gt;18 -->
<g id="edge18" class="edge">
<title>17&#45;&gt;18</title>
<path fill="none" stroke="#000000" d="M550.5354,-296.9465C550.064,-288.776 549.5538,-279.9318 549.0598,-271.3697"/>
<polygon fill="#000000" stroke="#000000" points="552.5393,-270.9118 548.469,-261.13 545.5509,-271.315 552.5393,-270.9118"/>
</g>
<!-- 21 -->
<g id="node22" class="node">
<title>21</title>
<polygon fill="none" stroke="#000000" points="715,-253.5 616,-253.5 616,-200.5 715,-200.5 715,-253.5"/>
<text text-anchor="middle" x="665.5" y="-238.3" font-family="Helvetica,sans-Serif" font-size="14.00" fill="#000000">gini = 0.0</text>
<text text-anchor="middle" x="665.5" y="-223.3" font-family="Helvetica,sans-Serif" font-size="14.00" fill="#000000">samples = 2</text>
<text text-anchor="middle" x="665.5" y="-208.3" font-family="Helvetica,sans-Serif" font-size="14.00" fill="#000000">value = [0, 2]</text>
</g>
<!-- 17&#45;&gt;21 -->
<g id="edge21" class="edge">
<title>17&#45;&gt;21</title>
<path fill="none" stroke="#000000" d="M589.5004,-296.9465C602.1866,-285.2707 616.3678,-272.219 629.013,-260.5809"/>
<polygon fill="#000000" stroke="#000000" points="631.6731,-262.8895 636.6609,-253.5422 626.9327,-257.7389 631.6731,-262.8895"/>
</g>
<!-- 19 -->
<g id="node20" class="node">
<title>19</title>
<polygon fill="none" stroke="#000000" points="537,-149.5 438,-149.5 438,-96.5 537,-96.5 537,-149.5"/>
<text text-anchor="middle" x="487.5" y="-134.3" font-family="Helvetica,sans-Serif" font-size="14.00" fill="#000000">gini = 0.0</text>
<text text-anchor="middle" x="487.5" y="-119.3" font-family="Helvetica,sans-Serif" font-size="14.00" fill="#000000">samples = 1</text>
<text text-anchor="middle" x="487.5" y="-104.3" font-family="Helvetica,sans-Serif" font-size="14.00" fill="#000000">value = [0, 1]</text>
</g>
<!-- 18&#45;&gt;19 -->
<g id="edge19" class="edge">
<title>18&#45;&gt;19</title>
<path fill="none" stroke="#000000" d="M527.1812,-192.9465C520.9324,-181.9316 513.9888,-169.6922 507.6793,-158.5703"/>
<polygon fill="#000000" stroke="#000000" points="510.5362,-156.513 502.5576,-149.5422 504.4477,-159.967 510.5362,-156.513"/>
</g>
<!-- 20 -->
<g id="node21" class="node">
<title>20</title>
<polygon fill="none" stroke="#000000" points="654,-149.5 555,-149.5 555,-96.5 654,-96.5 654,-149.5"/>
<text text-anchor="middle" x="604.5" y="-134.3" font-family="Helvetica,sans-Serif" font-size="14.00" fill="#000000">gini = 0.0</text>
<text text-anchor="middle" x="604.5" y="-119.3" font-family="Helvetica,sans-Serif" font-size="14.00" fill="#000000">samples = 6</text>
<text text-anchor="middle" x="604.5" y="-104.3" font-family="Helvetica,sans-Serif" font-size="14.00" fill="#000000">value = [6, 0]</text>
</g>
<!-- 18&#45;&gt;20 -->
<g id="edge20" class="edge">
<title>18&#45;&gt;20</title>
<path fill="none" stroke="#000000" d="M565.4914,-192.9465C571.6343,-181.9316 578.4601,-169.6922 584.6627,-158.5703"/>
<polygon fill="#000000" stroke="#000000" points="587.8837,-159.9806 589.6976,-149.5422 581.7701,-156.5711 587.8837,-159.9806"/>
</g>
<!-- 23 -->
<g id="node24" class="node">
<title>23</title>
<polygon fill="none" stroke="#000000" points="721,-357.5 622,-357.5 622,-304.5 721,-304.5 721,-357.5"/>
<text text-anchor="middle" x="671.5" y="-342.3" font-family="Helvetica,sans-Serif" font-size="14.00" fill="#000000">gini = 0.0</text>
<text text-anchor="middle" x="671.5" y="-327.3" font-family="Helvetica,sans-Serif" font-size="14.00" fill="#000000">samples = 1</text>
<text text-anchor="middle" x="671.5" y="-312.3" font-family="Helvetica,sans-Serif" font-size="14.00" fill="#000000">value = [1, 0]</text>
</g>
<!-- 22&#45;&gt;23 -->
<g id="edge23" class="edge">
<title>22&#45;&gt;23</title>
<path fill="none" stroke="#000000" d="M671.5,-400.9465C671.5,-390.2621 671.5,-378.4254 671.5,-367.5742"/>
<polygon fill="#000000" stroke="#000000" points="675.0001,-367.5421 671.5,-357.5422 668.0001,-367.5422 675.0001,-367.5421"/>
</g>
<!-- 24 -->
<g id="node25" class="node">
<title>24</title>
<polygon fill="none" stroke="#000000" points="846,-357.5 739,-357.5 739,-304.5 846,-304.5 846,-357.5"/>
<text text-anchor="middle" x="792.5" y="-342.3" font-family="Helvetica,sans-Serif" font-size="14.00" fill="#000000">gini = 0.0</text>
<text text-anchor="middle" x="792.5" y="-327.3" font-family="Helvetica,sans-Serif" font-size="14.00" fill="#000000">samples = 24</text>
<text text-anchor="middle" x="792.5" y="-312.3" font-family="Helvetica,sans-Serif" font-size="14.00" fill="#000000">value = [0, 24]</text>
</g>
<!-- 22&#45;&gt;24 -->
<g id="edge24" class="edge">
<title>22&#45;&gt;24</title>
<path fill="none" stroke="#000000" d="M711.1199,-400.9465C724.8324,-389.1606 740.1761,-375.9726 753.8127,-364.2519"/>
<polygon fill="#000000" stroke="#000000" points="756.3169,-366.7147 761.6192,-357.5422 751.7541,-361.4061 756.3169,-366.7147"/>
</g>
</g>
</svg>
