<?xml version="1.0" encoding="UTF-8" standalone="no"?>
<!DOCTYPE svg PUBLIC "-//W3C//DTD SVG 1.1//EN"
 "http://www.w3.org/Graphics/SVG/1.1/DTD/svg11.dtd">
<!-- Generated by graphviz version 2.40.1 (20161225.0304)
 -->
<!-- Title: Tree Pages: 1 -->
<svg width="953pt" height="685pt"
 viewBox="0.00 0.00 953.00 685.00" xmlns="http://www.w3.org/2000/svg" xmlns:xlink="http://www.w3.org/1999/xlink">
<g id="graph0" class="graph" transform="scale(1 1) rotate(0) translate(4 681)">
<title>Tree</title>
<polygon fill="#ffffff" stroke="transparent" points="-4,4 -4,-681 949,-681 949,4 -4,4"/>
<!-- 0 -->
<g id="node1" class="node">
<title>0</title>
<polygon fill="none" stroke="#000000" points="506.5,-677 390.5,-677 390.5,-609 506.5,-609 506.5,-677"/>
<text text-anchor="middle" x="448.5" y="-661.8" font-family="Helvetica,sans-Serif" font-size="14.00" fill="#000000">X[2] &lt;= 94.5</text>
<text text-anchor="middle" x="448.5" y="-646.8" font-family="Helvetica,sans-Serif" font-size="14.00" fill="#000000">gini = 0.481</text>
<text text-anchor="middle" x="448.5" y="-631.8" font-family="Helvetica,sans-Serif" font-size="14.00" fill="#000000">samples = 72</text>
<text text-anchor="middle" x="448.5" y="-616.8" font-family="Helvetica,sans-Serif" font-size="14.00" fill="#000000">value = [29, 43]</text>
</g>
<!-- 1 -->
<g id="node2" class="node">
<title>1</title>
<polygon fill="none" stroke="#000000" points="438.5,-573 322.5,-573 322.5,-505 438.5,-505 438.5,-573"/>
<text text-anchor="middle" x="380.5" y="-557.8" font-family="Helvetica,sans-Serif" font-size="14.00" fill="#000000">X[0] &lt;= 44.0</text>
<text text-anchor="middle" x="380.5" y="-542.8" font-family="Helvetica,sans-Serif" font-size="14.00" fill="#000000">gini = 0.467</text>
<text text-anchor="middle" x="380.5" y="-527.8" font-family="Helvetica,sans-Serif" font-size="14.00" fill="#000000">samples = 35</text>
<text text-anchor="middle" x="380.5" y="-512.8" font-family="Helvetica,sans-Serif" font-size="14.00" fill="#000000">value = [22, 13]</text>
</g>
<!-- 0&#45;&gt;1 -->
<g id="edge1" class="edge">
<title>0&#45;&gt;1</title>
<path fill="none" stroke="#000000" d="M426.2343,-608.9465C420.5398,-600.2373 414.3448,-590.7626 408.4062,-581.6801"/>
<polygon fill="#000000" stroke="#000000" points="411.2177,-579.5843 402.8158,-573.13 405.3589,-583.4151 411.2177,-579.5843"/>
<text text-anchor="middle" x="397.6942" y="-593.8998" font-family="Helvetica,sans-Serif" font-size="14.00" fill="#000000">True</text>
</g>
<!-- 14 -->
<g id="node15" class="node">
<title>14</title>
<polygon fill="none" stroke="#000000" points="623,-573 504,-573 504,-505 623,-505 623,-573"/>
<text text-anchor="middle" x="563.5" y="-557.8" font-family="Helvetica,sans-Serif" font-size="14.00" fill="#000000">X[8] &lt;= 286.908</text>
<text text-anchor="middle" x="563.5" y="-542.8" font-family="Helvetica,sans-Serif" font-size="14.00" fill="#000000">gini = 0.307</text>
<text text-anchor="middle" x="563.5" y="-527.8" font-family="Helvetica,sans-Serif" font-size="14.00" fill="#000000">samples = 37</text>
<text text-anchor="middle" x="563.5" y="-512.8" font-family="Helvetica,sans-Serif" font-size="14.00" fill="#000000">value = [7, 30]</text>
</g>
<!-- 0&#45;&gt;14 -->
<g id="edge14" class="edge">
<title>0&#45;&gt;14</title>
<path fill="none" stroke="#000000" d="M486.1553,-608.9465C496.3813,-599.6986 507.5618,-589.5876 518.1641,-579.9994"/>
<polygon fill="#000000" stroke="#000000" points="520.6908,-582.4334 525.7601,-573.13 515.9956,-577.2416 520.6908,-582.4334"/>
<text text-anchor="middle" x="524.506" y="-594.3985" font-family="Helvetica,sans-Serif" font-size="14.00" fill="#000000">False</text>
</g>
<!-- 2 -->
<g id="node3" class="node">
<title>2</title>
<polygon fill="none" stroke="#000000" points="304,-461.5 205,-461.5 205,-408.5 304,-408.5 304,-461.5"/>
<text text-anchor="middle" x="254.5" y="-446.3" font-family="Helvetica,sans-Serif" font-size="14.00" fill="#000000">gini = 0.0</text>
<text text-anchor="middle" x="254.5" y="-431.3" font-family="Helvetica,sans-Serif" font-size="14.00" fill="#000000">samples = 8</text>
<text text-anchor="middle" x="254.5" y="-416.3" font-family="Helvetica,sans-Serif" font-size="14.00" fill="#000000">value = [8, 0]</text>
</g>
<!-- 1&#45;&gt;2 -->
<g id="edge2" class="edge">
<title>1&#45;&gt;2</title>
<path fill="none" stroke="#000000" d="M339.2429,-504.9465C324.8303,-493.0504 308.6873,-479.726 294.3883,-467.9237"/>
<polygon fill="#000000" stroke="#000000" points="296.5971,-465.2086 286.6569,-461.5422 292.1411,-470.6071 296.5971,-465.2086"/>
</g>
<!-- 3 -->
<g id="node4" class="node">
<title>3</title>
<polygon fill="none" stroke="#000000" points="438.5,-469 322.5,-469 322.5,-401 438.5,-401 438.5,-469"/>
<text text-anchor="middle" x="380.5" y="-453.8" font-family="Helvetica,sans-Serif" font-size="14.00" fill="#000000">X[0] &lt;= 66.5</text>
<text text-anchor="middle" x="380.5" y="-438.8" font-family="Helvetica,sans-Serif" font-size="14.00" fill="#000000">gini = 0.499</text>
<text text-anchor="middle" x="380.5" y="-423.8" font-family="Helvetica,sans-Serif" font-size="14.00" fill="#000000">samples = 27</text>
<text text-anchor="middle" x="380.5" y="-408.8" font-family="Helvetica,sans-Serif" font-size="14.00" fill="#000000">value = [14, 13]</text>
</g>
<!-- 1&#45;&gt;3 -->
<g id="edge3" class="edge">
<title>1&#45;&gt;3</title>
<path fill="none" stroke="#000000" d="M380.5,-504.9465C380.5,-496.776 380.5,-487.9318 380.5,-479.3697"/>
<polygon fill="#000000" stroke="#000000" points="384.0001,-479.13 380.5,-469.13 377.0001,-479.13 384.0001,-479.13"/>
</g>
<!-- 4 -->
<g id="node5" class="node">
<title>4</title>
<polygon fill="none" stroke="#000000" points="231,-365 124,-365 124,-297 231,-297 231,-365"/>
<text text-anchor="middle" x="177.5" y="-349.8" font-family="Helvetica,sans-Serif" font-size="14.00" fill="#000000">X[4] &lt;= 0.744</text>
<text text-anchor="middle" x="177.5" y="-334.8" font-family="Helvetica,sans-Serif" font-size="14.00" fill="#000000">gini = 0.415</text>
<text text-anchor="middle" x="177.5" y="-319.8" font-family="Helvetica,sans-Serif" font-size="14.00" fill="#000000">samples = 17</text>
<text text-anchor="middle" x="177.5" y="-304.8" font-family="Helvetica,sans-Serif" font-size="14.00" fill="#000000">value = [5, 12]</text>
</g>
<!-- 3&#45;&gt;4 -->
<g id="edge4" class="edge">
<title>3&#45;&gt;4</title>
<path fill="none" stroke="#000000" d="M322.3283,-405.1978C296.6515,-392.0431 266.4203,-376.5552 240.2384,-363.1419"/>
<polygon fill="#000000" stroke="#000000" points="241.6565,-359.9358 231.1606,-358.4911 238.4647,-366.1658 241.6565,-359.9358"/>
</g>
<!-- 11 -->
<g id="node12" class="node">
<title>11</title>
<polygon fill="none" stroke="#000000" points="436,-365 325,-365 325,-297 436,-297 436,-365"/>
<text text-anchor="middle" x="380.5" y="-349.8" font-family="Helvetica,sans-Serif" font-size="14.00" fill="#000000">X[7] &lt;= 13.853</text>
<text text-anchor="middle" x="380.5" y="-334.8" font-family="Helvetica,sans-Serif" font-size="14.00" fill="#000000">gini = 0.18</text>
<text text-anchor="middle" x="380.5" y="-319.8" font-family="Helvetica,sans-Serif" font-size="14.00" fill="#000000">samples = 10</text>
<text text-anchor="middle" x="380.5" y="-304.8" font-family="Helvetica,sans-Serif" font-size="14.00" fill="#000000">value = [9, 1]</text>
</g>
<!-- 3&#45;&gt;11 -->
<g id="edge11" class="edge">
<title>3&#45;&gt;11</title>
<path fill="none" stroke="#000000" d="M380.5,-400.9465C380.5,-392.776 380.5,-383.9318 380.5,-375.3697"/>
<polygon fill="#000000" stroke="#000000" points="384.0001,-375.13 380.5,-365.13 377.0001,-375.13 384.0001,-375.13"/>
</g>
<!-- 5 -->
<g id="node6" class="node">
<title>5</title>
<polygon fill="none" stroke="#000000" points="104,-253.5 5,-253.5 5,-200.5 104,-200.5 104,-253.5"/>
<text text-anchor="middle" x="54.5" y="-238.3" font-family="Helvetica,sans-Serif" font-size="14.00" fill="#000000">gini = 0.0</text>
<text text-anchor="middle" x="54.5" y="-223.3" font-family="Helvetica,sans-Serif" font-size="14.00" fill="#000000">samples = 3</text>
<text text-anchor="middle" x="54.5" y="-208.3" font-family="Helvetica,sans-Serif" font-size="14.00" fill="#000000">value = [3, 0]</text>
</g>
<!-- 4&#45;&gt;5 -->
<g id="edge5" class="edge">
<title>4&#45;&gt;5</title>
<path fill="none" stroke="#000000" d="M137.2252,-296.9465C123.2861,-285.1606 107.6888,-271.9726 93.8268,-260.2519"/>
<polygon fill="#000000" stroke="#000000" points="95.7873,-257.3262 85.8912,-253.5422 91.2676,-262.6715 95.7873,-257.3262"/>
</g>
<!-- 6 -->
<g id="node7" class="node">
<title>6</title>
<polygon fill="none" stroke="#000000" points="233,-261 122,-261 122,-193 233,-193 233,-261"/>
<text text-anchor="middle" x="177.5" y="-245.8" font-family="Helvetica,sans-Serif" font-size="14.00" fill="#000000">X[1] &lt;= 35.108</text>
<text text-anchor="middle" x="177.5" y="-230.8" font-family="Helvetica,sans-Serif" font-size="14.00" fill="#000000">gini = 0.245</text>
<text text-anchor="middle" x="177.5" y="-215.8" font-family="Helvetica,sans-Serif" font-size="14.00" fill="#000000">samples = 14</text>
<text text-anchor="middle" x="177.5" y="-200.8" font-family="Helvetica,sans-Serif" font-size="14.00" fill="#000000">value = [2, 12]</text>
</g>
<!-- 4&#45;&gt;6 -->
<g id="edge6" class="edge">
<title>4&#45;&gt;6</title>
<path fill="none" stroke="#000000" d="M177.5,-296.9465C177.5,-288.776 177.5,-279.9318 177.5,-271.3697"/>
<polygon fill="#000000" stroke="#000000" points="181.0001,-271.13 177.5,-261.13 174.0001,-271.13 181.0001,-271.13"/>
</g>
<!-- 7 -->
<g id="node8" class="node">
<title>7</title>
<polygon fill="none" stroke="#000000" points="173,-157 54,-157 54,-89 173,-89 173,-157"/>
<text text-anchor="middle" x="113.5" y="-141.8" font-family="Helvetica,sans-Serif" font-size="14.00" fill="#000000">X[8] &lt;= 933.388</text>
<text text-anchor="middle" x="113.5" y="-126.8" font-family="Helvetica,sans-Serif" font-size="14.00" fill="#000000">gini = 0.142</text>
<text text-anchor="middle" x="113.5" y="-111.8" font-family="Helvetica,sans-Serif" font-size="14.00" fill="#000000">samples = 13</text>
<text text-anchor="middle" x="113.5" y="-96.8" font-family="Helvetica,sans-Serif" font-size="14.00" fill="#000000">value = [1, 12]</text>
</g>
<!-- 6&#45;&gt;7 -->
<g id="edge7" class="edge">
<title>6&#45;&gt;7</title>
<path fill="none" stroke="#000000" d="M156.544,-192.9465C151.1845,-184.2373 145.3539,-174.7626 139.7647,-165.6801"/>
<polygon fill="#000000" stroke="#000000" points="142.7249,-163.8122 134.5031,-157.13 136.7633,-167.481 142.7249,-163.8122"/>
</g>
<!-- 10 -->
<g id="node11" class="node">
<title>10</title>
<polygon fill="none" stroke="#000000" points="290,-149.5 191,-149.5 191,-96.5 290,-96.5 290,-149.5"/>
<text text-anchor="middle" x="240.5" y="-134.3" font-family="Helvetica,sans-Serif" font-size="14.00" fill="#000000">gini = 0.0</text>
<text text-anchor="middle" x="240.5" y="-119.3" font-family="Helvetica,sans-Serif" font-size="14.00" fill="#000000">samples = 1</text>
<text text-anchor="middle" x="240.5" y="-104.3" font-family="Helvetica,sans-Serif" font-size="14.00" fill="#000000">value = [1, 0]</text>
</g>
<!-- 6&#45;&gt;10 -->
<g id="edge10" class="edge">
<title>6&#45;&gt;10</title>
<path fill="none" stroke="#000000" d="M198.1286,-192.9465C204.8678,-181.8215 212.3637,-169.4473 219.1545,-158.237"/>
<polygon fill="#000000" stroke="#000000" points="222.2339,-159.9087 224.4216,-149.5422 216.2467,-156.2818 222.2339,-159.9087"/>
</g>
<!-- 8 -->
<g id="node9" class="node">
<title>8</title>
<polygon fill="none" stroke="#000000" points="107,-53 0,-53 0,0 107,0 107,-53"/>
<text text-anchor="middle" x="53.5" y="-37.8" font-family="Helvetica,sans-Serif" font-size="14.00" fill="#000000">gini = 0.0</text>
<text text-anchor="middle" x="53.5" y="-22.8" font-family="Helvetica,sans-Serif" font-size="14.00" fill="#000000">samples = 12</text>
<text text-anchor="middle" x="53.5" y="-7.8" font-family="Helvetica,sans-Serif" font-size="14.00" fill="#000000">value = [0, 12]</text>
</g>
<!-- 7&#45;&gt;8 -->
<g id="edge8" class="edge">
<title>7&#45;&gt;8</title>
<path fill="none" stroke="#000000" d="M92.3462,-88.9777C86.8805,-80.187 80.9846,-70.7044 75.4778,-61.8477"/>
<polygon fill="#000000" stroke="#000000" points="78.3837,-59.8927 70.1312,-53.2485 72.4391,-63.5889 78.3837,-59.8927"/>
</g>
<!-- 9 -->
<g id="node10" class="node">
<title>9</title>
<polygon fill="none" stroke="#000000" points="224,-53 125,-53 125,0 224,0 224,-53"/>
<text text-anchor="middle" x="174.5" y="-37.8" font-family="Helvetica,sans-Serif" font-size="14.00" fill="#000000">gini = 0.0</text>
<text text-anchor="middle" x="174.5" y="-22.8" font-family="Helvetica,sans-Serif" font-size="14.00" fill="#000000">samples = 1</text>
<text text-anchor="middle" x="174.5" y="-7.8" font-family="Helvetica,sans-Serif" font-size="14.00" fill="#000000">value = [1, 0]</text>
</g>
<!-- 7&#45;&gt;9 -->
<g id="edge9" class="edge">
<title>7&#45;&gt;9</title>
<path fill="none" stroke="#000000" d="M135.0063,-88.9777C140.5631,-80.187 146.5573,-70.7044 152.1559,-61.8477"/>
<polygon fill="#000000" stroke="#000000" points="155.2069,-63.5714 157.5916,-53.2485 149.2899,-59.8312 155.2069,-63.5714"/>
</g>
<!-- 12 -->
<g id="node13" class="node">
<title>12</title>
<polygon fill="none" stroke="#000000" points="350,-253.5 251,-253.5 251,-200.5 350,-200.5 350,-253.5"/>
<text text-anchor="middle" x="300.5" y="-238.3" font-family="Helvetica,sans-Serif" font-size="14.00" fill="#000000">gini = 0.0</text>
<text text-anchor="middle" x="300.5" y="-223.3" font-family="Helvetica,sans-Serif" font-size="14.00" fill="#000000">samples = 9</text>
<text text-anchor="middle" x="300.5" y="-208.3" font-family="Helvetica,sans-Serif" font-size="14.00" fill="#000000">value = [9, 0]</text>
</g>
<!-- 11&#45;&gt;12 -->
<g id="edge12" class="edge">
<title>11&#45;&gt;12</title>
<path fill="none" stroke="#000000" d="M354.305,-296.9465C345.5778,-285.6012 335.8513,-272.9567 327.0941,-261.5724"/>
<polygon fill="#000000" stroke="#000000" points="329.7884,-259.3344 320.917,-253.5422 324.24,-263.6024 329.7884,-259.3344"/>
</g>
<!-- 13 -->
<g id="node14" class="node">
<title>13</title>
<polygon fill="none" stroke="#000000" points="467,-253.5 368,-253.5 368,-200.5 467,-200.5 467,-253.5"/>
<text text-anchor="middle" x="417.5" y="-238.3" font-family="Helvetica,sans-Serif" font-size="14.00" fill="#000000">gini = 0.0</text>
<text text-anchor="middle" x="417.5" y="-223.3" font-family="Helvetica,sans-Serif" font-size="14.00" fill="#000000">samples = 1</text>
<text text-anchor="middle" x="417.5" y="-208.3" font-family="Helvetica,sans-Serif" font-size="14.00" fill="#000000">value = [0, 1]</text>
</g>
<!-- 11&#45;&gt;13 -->
<g id="edge13" class="edge">
<title>11&#45;&gt;13</title>
<path fill="none" stroke="#000000" d="M392.6152,-296.9465C396.4556,-286.1519 400.7144,-274.1813 404.6073,-263.2389"/>
<polygon fill="#000000" stroke="#000000" points="408.0027,-264.1369 408.0571,-253.5422 401.4076,-261.7905 408.0027,-264.1369"/>
</g>
<!-- 15 -->
<g id="node16" class="node">
<title>15</title>
<polygon fill="none" stroke="#000000" points="615.5,-469 511.5,-469 511.5,-401 615.5,-401 615.5,-469"/>
<text text-anchor="middle" x="563.5" y="-453.8" font-family="Helvetica,sans-Serif" font-size="14.00" fill="#000000">X[9] &lt;= 8.954</text>
<text text-anchor="middle" x="563.5" y="-438.8" font-family="Helvetica,sans-Serif" font-size="14.00" fill="#000000">gini = 0.5</text>
<text text-anchor="middle" x="563.5" y="-423.8" font-family="Helvetica,sans-Serif" font-size="14.00" fill="#000000">samples = 12</text>
<text text-anchor="middle" x="563.5" y="-408.8" font-family="Helvetica,sans-Serif" font-size="14.00" fill="#000000">value = [6, 6]</text>
</g>
<!-- 14&#45;&gt;15 -->
<g id="edge15" class="edge">
<title>14&#45;&gt;15</title>
<path fill="none" stroke="#000000" d="M563.5,-504.9465C563.5,-496.776 563.5,-487.9318 563.5,-479.3697"/>
<polygon fill="#000000" stroke="#000000" points="567.0001,-479.13 563.5,-469.13 560.0001,-479.13 567.0001,-479.13"/>
</g>
<!-- 22 -->
<g id="node23" class="node">
<title>22</title>
<polygon fill="none" stroke="#000000" points="824,-469 717,-469 717,-401 824,-401 824,-469"/>
<text text-anchor="middle" x="770.5" y="-453.8" font-family="Helvetica,sans-Serif" font-size="14.00" fill="#000000">X[6] &lt;= 2.28</text>
<text text-anchor="middle" x="770.5" y="-438.8" font-family="Helvetica,sans-Serif" font-size="14.00" fill="#000000">gini = 0.077</text>
<text text-anchor="middle" x="770.5" y="-423.8" font-family="Helvetica,sans-Serif" font-size="14.00" fill="#000000">samples = 25</text>
<text text-anchor="middle" x="770.5" y="-408.8" font-family="Helvetica,sans-Serif" font-size="14.00" fill="#000000">value = [1, 24]</text>
</g>
<!-- 14&#45;&gt;22 -->
<g id="edge22" class="edge">
<title>14&#45;&gt;22</title>
<path fill="none" stroke="#000000" d="M623.0953,-509.0584C649.7074,-495.6881 681.0732,-479.9294 708.0154,-466.3932"/>
<polygon fill="#000000" stroke="#000000" points="709.6051,-469.5115 716.9695,-461.8946 706.4625,-463.2566 709.6051,-469.5115"/>
</g>
<!-- 16 -->
<g id="node17" class="node">
<title>16</title>
<polygon fill="none" stroke="#000000" points="586,-365 483,-365 483,-297 586,-297 586,-365"/>
<text text-anchor="middle" x="534.5" y="-349.8" font-family="Helvetica,sans-Serif" font-size="14.00" fill="#000000">X[6] &lt;= 4.854</text>
<text text-anchor="middle" x="534.5" y="-334.8" font-family="Helvetica,sans-Serif" font-size="14.00" fill="#000000">gini = 0.444</text>
<text text-anchor="middle" x="534.5" y="-319.8" font-family="Helvetica,sans-Serif" font-size="14.00" fill="#000000">samples = 9</text>
<text text-anchor="middle" x="534.5" y="-304.8" font-family="Helvetica,sans-Serif" font-size="14.00" fill="#000000">value = [6, 3]</text>
</g>
<!-- 15&#45;&gt;16 -->
<g id="edge16" class="edge">
<title>15&#45;&gt;16</title>
<path fill="none" stroke="#000000" d="M554.0043,-400.9465C551.6759,-392.5965 549.1513,-383.5427 546.715,-374.8056"/>
<polygon fill="#000000" stroke="#000000" points="550.0745,-373.8224 544.017,-365.13 543.3317,-375.7026 550.0745,-373.8224"/>
</g>
<!-- 21 -->
<g id="node22" class="node">
<title>21</title>
<polygon fill="none" stroke="#000000" points="703,-357.5 604,-357.5 604,-304.5 703,-304.5 703,-357.5"/>
<text text-anchor="middle" x="653.5" y="-342.3" font-family="Helvetica,sans-Serif" font-size="14.00" fill="#000000">gini = 0.0</text>
<text text-anchor="middle" x="653.5" y="-327.3" font-family="Helvetica,sans-Serif" font-size="14.00" fill="#000000">samples = 3</text>
<text text-anchor="middle" x="653.5" y="-312.3" font-family="Helvetica,sans-Serif" font-size="14.00" fill="#000000">value = [0, 3]</text>
</g>
<!-- 15&#45;&gt;21 -->
<g id="edge21" class="edge">
<title>15&#45;&gt;21</title>
<path fill="none" stroke="#000000" d="M592.9694,-400.9465C602.8828,-389.491 613.9424,-376.711 623.8682,-365.2412"/>
<polygon fill="#000000" stroke="#000000" points="626.6336,-367.3942 630.5308,-357.5422 621.3404,-362.8135 626.6336,-367.3942"/>
</g>
<!-- 17 -->
<g id="node18" class="node">
<title>17</title>
<polygon fill="none" stroke="#000000" points="584,-253.5 485,-253.5 485,-200.5 584,-200.5 584,-253.5"/>
<text text-anchor="middle" x="534.5" y="-238.3" font-family="Helvetica,sans-Serif" font-size="14.00" fill="#000000">gini = 0.0</text>
<text text-anchor="middle" x="534.5" y="-223.3" font-family="Helvetica,sans-Serif" font-size="14.00" fill="#000000">samples = 2</text>
<text text-anchor="middle" x="534.5" y="-208.3" font-family="Helvetica,sans-Serif" font-size="14.00" fill="#000000">value = [0, 2]</text>
</g>
<!-- 16&#45;&gt;17 -->
<g id="edge17" class="edge">
<title>16&#45;&gt;17</title>
<path fill="none" stroke="#000000" d="M534.5,-296.9465C534.5,-286.2621 534.5,-274.4254 534.5,-263.5742"/>
<polygon fill="#000000" stroke="#000000" points="538.0001,-263.5421 534.5,-253.5422 531.0001,-263.5422 538.0001,-263.5421"/>
</g>
<!-- 18 -->
<g id="node19" class="node">
<title>18</title>
<polygon fill="none" stroke="#000000" points="721,-261 602,-261 602,-193 721,-193 721,-261"/>
<text text-anchor="middle" x="661.5" y="-245.8" font-family="Helvetica,sans-Serif" font-size="14.00" fill="#000000">X[10] &lt;= 117.19</text>
<text text-anchor="middle" x="661.5" y="-230.8" font-family="Helvetica,sans-Serif" font-size="14.00" fill="#000000">gini = 0.245</text>
<text text-anchor="middle" x="661.5" y="-215.8" font-family="Helvetica,sans-Serif" font-size="14.00" fill="#000000">samples = 7</text>
<text text-anchor="middle" x="661.5" y="-200.8" font-family="Helvetica,sans-Serif" font-size="14.00" fill="#000000">value = [6, 1]</text>
</g>
<!-- 16&#45;&gt;18 -->
<g id="edge18" class="edge">
<title>16&#45;&gt;18</title>
<path fill="none" stroke="#000000" d="M576.0845,-296.9465C587.4873,-287.6088 599.9647,-277.3911 611.7743,-267.7203"/>
<polygon fill="#000000" stroke="#000000" points="614.3026,-270.1736 619.822,-261.13 609.8676,-264.7578 614.3026,-270.1736"/>
</g>
<!-- 19 -->
<g id="node20" class="node">
<title>19</title>
<polygon fill="none" stroke="#000000" points="652,-149.5 553,-149.5 553,-96.5 652,-96.5 652,-149.5"/>
<text text-anchor="middle" x="602.5" y="-134.3" font-family="Helvetica,sans-Serif" font-size="14.00" fill="#000000">gini = 0.0</text>
<text text-anchor="middle" x="602.5" y="-119.3" font-family="Helvetica,sans-Serif" font-size="14.00" fill="#000000">samples = 6</text>
<text text-anchor="middle" x="602.5" y="-104.3" font-family="Helvetica,sans-Serif" font-size="14.00" fill="#000000">value = [6, 0]</text>
</g>
<!-- 18&#45;&gt;19 -->
<g id="edge19" class="edge">
<title>18&#45;&gt;19</title>
<path fill="none" stroke="#000000" d="M642.1812,-192.9465C635.9324,-181.9316 628.9888,-169.6922 622.6793,-158.5703"/>
<polygon fill="#000000" stroke="#000000" points="625.5362,-156.513 617.5576,-149.5422 619.4477,-159.967 625.5362,-156.513"/>
</g>
<!-- 20 -->
<g id="node21" class="node">
<title>20</title>
<polygon fill="none" stroke="#000000" points="769,-149.5 670,-149.5 670,-96.5 769,-96.5 769,-149.5"/>
<text text-anchor="middle" x="719.5" y="-134.3" font-family="Helvetica,sans-Serif" font-size="14.00" fill="#000000">gini = 0.0</text>
<text text-anchor="middle" x="719.5" y="-119.3" font-family="Helvetica,sans-Serif" font-size="14.00" fill="#000000">samples = 1</text>
<text text-anchor="middle" x="719.5" y="-104.3" font-family="Helvetica,sans-Serif" font-size="14.00" fill="#000000">value = [0, 1]</text>
</g>
<!-- 18&#45;&gt;20 -->
<g id="edge20" class="edge">
<title>18&#45;&gt;20</title>
<path fill="none" stroke="#000000" d="M680.4914,-192.9465C686.6343,-181.9316 693.4601,-169.6922 699.6627,-158.5703"/>
<polygon fill="#000000" stroke="#000000" points="702.8837,-159.9806 704.6976,-149.5422 696.7701,-156.5711 702.8837,-159.9806"/>
</g>
<!-- 23 -->
<g id="node24" class="node">
<title>23</title>
<polygon fill="none" stroke="#000000" points="820,-357.5 721,-357.5 721,-304.5 820,-304.5 820,-357.5"/>
<text text-anchor="middle" x="770.5" y="-342.3" font-family="Helvetica,sans-Serif" font-size="14.00" fill="#000000">gini = 0.0</text>
<text text-anchor="middle" x="770.5" y="-327.3" font-family="Helvetica,sans-Serif" font-size="14.00" fill="#000000">samples = 1</text>
<text text-anchor="middle" x="770.5" y="-312.3" font-family="Helvetica,sans-Serif" font-size="14.00" fill="#000000">value = [1, 0]</text>
</g>
<!-- 22&#45;&gt;23 -->
<g id="edge23" class="edge">
<title>22&#45;&gt;23</title>
<path fill="none" stroke="#000000" d="M770.5,-400.9465C770.5,-390.2621 770.5,-378.4254 770.5,-367.5742"/>
<polygon fill="#000000" stroke="#000000" points="774.0001,-367.5421 770.5,-357.5422 767.0001,-367.5422 774.0001,-367.5421"/>
</g>
<!-- 24 -->
<g id="node25" class="node">
<title>24</title>
<polygon fill="none" stroke="#000000" points="945,-357.5 838,-357.5 838,-304.5 945,-304.5 945,-357.5"/>
<text text-anchor="middle" x="891.5" y="-342.3" font-family="Helvetica,sans-Serif" font-size="14.00" fill="#000000">gini = 0.0</text>
<text text-anchor="middle" x="891.5" y="-327.3" font-family="Helvetica,sans-Serif" font-size="14.00" fill="#000000">samples = 24</text>
<text text-anchor="middle" x="891.5" y="-312.3" font-family="Helvetica,sans-Serif" font-size="14.00" fill="#000000">value = [0, 24]</text>
</g>
<!-- 22&#45;&gt;24 -->
<g id="edge24" class="edge">
<title>22&#45;&gt;24</title>
<path fill="none" stroke="#000000" d="M810.1199,-400.9465C823.8324,-389.1606 839.1761,-375.9726 852.8127,-364.2519"/>
<polygon fill="#000000" stroke="#000000" points="855.3169,-366.7147 860.6192,-357.5422 850.7541,-361.4061 855.3169,-366.7147"/>
</g>
</g>
</svg>
